<?xml version="1.0" standalone="no"?>
<!DOCTYPE svg PUBLIC "-//W3C//DTD SVG 1.1//EN" "http://www.w3.org/Graphics/SVG/1.1/DTD/svg11.dtd" >
<svg>
<metadata>
Created by FontForge 20090914 at Fri Sep 20 01:05:16 2013
 By www-data
Copyright (C) 1994, 2007 Hoefler &#38; Frere-Jones. http://www.typography.com
</metadata>
<defs>
<font id="Knockout-29JuniorLtweight" horiz-adv-x="500" >
  <font-face 
    font-family="Knockout"
    font-weight="300"
    font-stretch="normal"
    units-per-em="1000"
    panose-1="2 0 5 6 4 0 0 2 0 4"
    ascent="800"
    descent="-200"
    x-height="468"
    cap-height="666"
    bbox="-221 -231.001 784 839"
    underline-thickness="45"
    underline-position="-61"
    unicode-range="U+0020-U+FB02"
  />
<missing-glyph 
 />
    <glyph glyph-name="fi" unicode="fi" horiz-adv-x="414" 
d="M282 0v468h84v-468h-84zM158 393v-392.999h-85v393h-54v70h54v49c0 48 10.167 85.667 30.5 113s51.5 41 93.5 41h34v-71h-23c-20 0 -34.167 -5.83301 -42.5 -17.5s-12.5 -27.834 -12.5 -48.501v-66h69v-70h-64zM285 543.001v89h78v-89h-78z" />
    <glyph glyph-name="fl" unicode="fl" horiz-adv-x="414" 
d="M158 393v-392.999h-85v393h-54v70h54v49c0 48 10.167 85.667 30.5 113s51.5 41 93.5 41h34v-71h-23c-20 0 -34.167 -5.83301 -42.5 -17.5s-12.5 -27.834 -12.5 -48.501v-66h69v-70h-64zM282 0.000976562v666h84v-666h-84z" />
    <glyph glyph-name=".notdef" 
 />
    <glyph glyph-name="space" unicode=" " horiz-adv-x="164" 
 />
    <glyph glyph-name="exclam" unicode="!" horiz-adv-x="191" 
d="M54 0v111h83v-111h-83zM109 186h-26l-33 190v290h92v-290z" />
    <glyph glyph-name="quotedbl" unicode="&#x22;" horiz-adv-x="258" 
d="M80 465h-53l34 201h77zM190 465h-53l49 201h78z" />
    <glyph glyph-name="numbersign" unicode="#" horiz-adv-x="559" 
d="M234 431l-33 -196h125l34 196h-126zM422 431l-34 -196h135v-56h-145l-30 -179h-62l30 179h-125l-31 -179h-62l31 179h-121v56h131l33 196h-136v56h146l30 179h62l-29 -179h125l30 179h62l-30 -179h119v-56h-129z" />
    <glyph glyph-name="dollar" unicode="$" horiz-adv-x="429" 
d="M177 763l79.9971 0.000976562v-85c42.667 -7.33301 76.167 -26 100.5 -56s36.5 -66.667 36.5 -110v-44h-87v33c0 28 -6.66699 51.667 -20 71s-35.333 29 -66 29c-25.333 0 -44.666 -7.5 -57.999 -22.5s-20 -34.5 -20 -58.5c0 -14 2.33301 -26.667 7 -38
s11.167 -22.166 19.5 -32.499s18.333 -20.5 30 -30.5l37.5 -32l55 -42c18.667 -14.667 35.334 -31 50.001 -49s26.667 -38.167 36 -60.5s14 -48.166 14 -77.499c0 -45.333 -12.5 -82.833 -37.5 -112.5s-57.5 -48.5 -97.5 -56.5v-86h-80v86c-42 7.33301 -75.333 26 -100 56
s-37 66.667 -37 110v46h89v-34c0 -68.667 29.333 -103 88 -103c28 0 49.5 9 64.5 27s22.5 39.333 22.5 64c0 16 -3 30.667 -9 44s-14 26 -24 38s-21.667 23.5 -35 34.5s-27.666 22.167 -42.999 33.5c-16.667 12 -33.5 25 -50.5 39s-32 29.167 -45 45.5
s-23.667 34.166 -32 53.499s-12.5 40.666 -12.5 63.999c0 42.667 10.667 79.167 32 109.5s52 50.166 92 59.499v87z" />
    <glyph glyph-name="percent" unicode="%" horiz-adv-x="568" 
d="M479 242c0 9.33301 -3.33301 17.166 -10 23.499s-15.334 9.5 -26.001 9.5s-19.334 -3.16699 -26.001 -9.5s-10 -14.166 -10 -23.499v-170c0 -9.33301 3.33301 -17.166 10 -23.499s15.334 -9.5 26.001 -9.5s19.334 3.16699 26.001 9.5s10 14.166 10 23.499v170zM168 593
c0 9.33301 -3.33301 17.333 -10 24s-15.334 10 -26.001 10s-19.167 -3.33301 -25.5 -10s-9.5 -14.667 -9.5 -24v-169c0 -10 3.16699 -18 9.5 -24s14.833 -9 25.5 -9s19.334 3 26.001 9s10 14 10 24v169zM542 88c0 -32.667 -9.33301 -58.167 -28 -76.5
s-42.334 -27.5 -71.001 -27.5c-28 0 -51.5 9.16699 -70.5 27.5s-28.5 43.833 -28.5 76.5v138c0 32 9.5 57.167 28.5 75.5s42.5 27.5 70.5 27.5c28.667 0 52.334 -9.16699 71.001 -27.5s28 -43.5 28 -75.5v-138zM96 -22l-39 30l422 679l39 -30zM231 439
c0 -32 -9.33301 -57.167 -28 -75.5s-42.334 -27.5 -71.001 -27.5c-28 0 -51.333 9.16699 -70 27.5s-28 43.5 -28 75.5v139c0 32 9.33301 57 28 75s42 27 70 27c28.667 0 52.334 -9 71.001 -27s28 -43 28 -75v-139z" />
    <glyph glyph-name="ampersand" unicode="&#x26;" horiz-adv-x="557" 
d="M286 94c-19.333 25.333 -37.3311 54.999 -53.998 88.999s-31.667 68 -45 102c-19.333 -15.333 -34.833 -33.166 -46.5 -53.499s-17.5 -42.833 -17.5 -67.5c0 -32.667 8.33301 -57.167 25 -73.5s40 -24.5 70 -24.5c13.333 0 26.166 2.83301 38.499 8.5
s22.166 12.167 29.499 19.5zM324.002 532.999c0 20 -3.66602 36.001 -10.999 48.001s-19.333 18 -36 18c-19.333 0 -34.5 -7.66699 -45.5 -23s-16.5 -37.666 -16.5 -66.999c0 -14.667 1.66699 -31.334 5 -50.001s7.66602 -38.334 12.999 -59.001
c34.667 23.333 58.5 47 71.5 71s19.5 44.667 19.5 62zM549.003 94c0 -36 -9.16602 -63.166 -27.499 -81.499s-43.5 -27.5 -75.5 -27.5c-18.667 0 -37.167 4.83301 -55.5 14.5s-36.166 23.167 -53.499 40.5c-19.333 -17.333 -41.333 -30.833 -66 -40.5
s-49.667 -14.5 -75 -14.5c-24.667 0 -47 4.33301 -67 13s-37.167 20.5 -51.5 35.5s-25.333 32.667 -33 53s-11.5 41.833 -11.5 64.5c0 44 11.333 83 34 117s53.334 65 92.001 93c-9.33301 24.667 -16.5 49.667 -21.5 75s-7.5 49.333 -7.5 72c0 24 3.33301 46.667 10 68
s16.167 39.666 28.5 54.999s27.666 27.5 45.999 36.5s39.166 13.5 62.499 13.5c44 0 76.167 -14 96.5 -42s30.5 -63 30.5 -105c0 -42.667 -13.833 -80.5 -41.5 -113.5s-62.5 -62.167 -104.5 -87.5l17 -46c6 -16 12.5 -31.833 19.5 -47.5s14.333 -30.5 22 -44.5
s15.5 -26.667 23.5 -38c9.33301 14 18 29.333 26 46s14.833 33.5 20.5 50.5s10 33.333 13 49s4.5 29.5 4.5 41.5h75c0 -18.667 -2.33301 -38.667 -7 -60s-11 -43 -19 -65s-17.333 -43.5 -28 -64.5s-22.334 -40.5 -35.001 -58.5c20.667 -22 41.667 -33 63 -33
c19.333 0 29 11.333 29 34v64h67v-67z" />
    <glyph glyph-name="quotesingle" unicode="'" horiz-adv-x="178" 
d="M97 465h-55l42 201h89z" />
    <glyph glyph-name="parenleft" unicode="(" horiz-adv-x="322" 
d="M301 -166c-68.667 54 -121.334 120.828 -158.001 200.495s-55 168.5 -55 266.5s18.333 187 55 267s89.334 147 158.001 201l23 -27c-20.667 -23.333 -40 -49.666 -58 -78.999s-33.667 -62.166 -47 -98.499s-23.833 -76.333 -31.5 -120s-11.5 -91.5 -11.5 -143.5
s3.83301 -99.667 11.5 -143s18.167 -83.166 31.5 -119.499s29 -69.166 47 -98.499s37.333 -55.666 58 -78.999z" />
    <glyph glyph-name="parenright" unicode=")" horiz-adv-x="322" 
d="M234 301c0 -98 -18.5 -186.828 -55.5 -266.495s-89.5 -146.5 -157.5 -200.5l-24 27c20.667 23.333 40 49.666 58 78.999s33.833 62.166 47.5 98.499s24.334 76.166 32.001 119.499s11.5 91 11.5 143s-3.83301 99.833 -11.5 143.5s-18.334 83.667 -32.001 120
s-29.5 69.166 -47.5 98.499s-37.333 55.666 -58 78.999l24 27c68 -54 120.5 -121 157.5 -201s55.5 -169 55.5 -267z" />
    <glyph glyph-name="asterisk" unicode="*" horiz-adv-x="313" 
d="M262 451c-2 -3.33301 -4.83398 -5 -8.50098 -5s-6.83398 0.666992 -9.50098 2c-9.33301 6 -19.666 13.167 -30.999 21.5s-23.666 18.833 -36.999 31.5c4 -16.667 6.83301 -32.667 8.5 -48s2.5 -28 2.5 -38c0 -3.33301 -0.833008 -6.66602 -2.5 -9.99902s-4.5 -5 -8.5 -5
h-37c-4 0 -6.83301 1.66699 -8.5 5s-2.5 6.66602 -2.5 9.99902c0 11.333 0.666992 24 2 38s4.33301 29.667 9 47c-12.667 -11.333 -25.167 -21.666 -37.5 -30.999s-22.833 -16.333 -31.5 -21c-2.66699 -2 -5.83398 -3 -9.50098 -3s-6.5 1.66699 -8.5 5l-18 32
c-2 3.33301 -2.16699 6.5 -0.5 9.5s4.16699 5.16699 7.5 6.5c9.33301 6 20.5 11.667 33.5 17s28.167 10.666 45.5 15.999c-16.667 5.33301 -32 11.166 -46 17.499s-25.333 11.833 -34 16.5c-3.33301 1.33301 -5.83301 3.66602 -7.5 6.99902s-1.5 6.66602 0.5 9.99902l18 32
c2 3.33301 4.83301 4.83301 8.5 4.5s6.83398 -1.16602 9.50098 -2.49902c10 -6 20.667 -13 32 -21s23.666 -18.333 36.999 -31c-4 16.667 -7 32.667 -9 48s-3 28 -3 38c0 3.33301 1 6.5 3 9.5s5 4.5 9 4.5h37c4 0 6.83301 -1.5 8.5 -4.5s2.5 -6.16699 2.5 -9.5
c0 -11.333 -0.833008 -24.166 -2.5 -38.499s-4.5 -30.166 -8.5 -47.499c12.667 12 25.167 22.5 37.5 31.5s22.5 16.167 30.5 21.5c3.33301 1.33301 6.66602 2 9.99902 2s6.33301 -1.66699 9 -5l18 -31c2 -3.33301 2.16699 -6.5 0.5 -9.5s-4.16699 -5.5 -7.5 -7.5
c-9.33301 -5.33301 -20.5 -10.833 -33.5 -16.5s-28.167 -11.167 -45.5 -16.5c16.667 -5.33301 31.834 -10.833 45.501 -16.5s24.834 -11.167 33.501 -16.5c3.33301 -2 5.83301 -4.5 7.5 -7.5s1.5 -6.5 -0.5 -10.5z" />
    <glyph glyph-name="plus" unicode="+" horiz-adv-x="351" 
d="M212 302v-109h-72v109h-100v72h100v108h72v-108h99v-72h-99z" />
    <glyph glyph-name="comma" unicode="," horiz-adv-x="189" 
d="M136 13c0 -32 -7.83301 -58.001 -23.5 -78.001s-41.167 -30 -76.5 -30v29c17.333 0 30.833 5.83301 40.5 17.5s14.5 27.834 14.5 48.501h-37v113h82v-100z" />
    <glyph glyph-name="hyphen" unicode="-" horiz-adv-x="272" 
d="M31 269v76h210v-76h-210z" />
    <glyph glyph-name="hyphen" unicode="&#xad;" horiz-adv-x="272" 
d="M31 269v76h210v-76h-210z" />
    <glyph glyph-name="period" unicode="." horiz-adv-x="189" 
d="M54 0v113h82v-113h-82z" />
    <glyph glyph-name="slash" unicode="/" horiz-adv-x="264" 
d="M67 -64h-65l199 793h64z" />
    <glyph glyph-name="zero" unicode="0" horiz-adv-x="445" 
d="M311 517c0 22.667 -7.66699 42 -23 58s-37 24 -65 24s-49.833 -8 -65.5 -24s-23.5 -35.333 -23.5 -58v-368c0 -22.667 7.83301 -42 23.5 -58s37.5 -24 65.5 -24s49.667 8 65 24s23 35.333 23 58v368zM400 158c0 -26 -4.16699 -49.5 -12.5 -70.5
s-20.166 -39.167 -35.499 -54.5s-33.833 -27.166 -55.5 -35.499s-46.167 -12.5 -73.5 -12.5s-51.833 4.16699 -73.5 12.5s-40.167 20.166 -55.5 35.499s-27.166 33.5 -35.499 54.5s-12.5 44.5 -12.5 70.5v350c0 26 4.16699 49.5 12.5 70.5s20.166 39.167 35.499 54.5
s33.833 27.166 55.5 35.499s46.167 12.5 73.5 12.5s51.833 -4.16699 73.5 -12.5s40.167 -20.166 55.5 -35.499s27.166 -33.5 35.499 -54.5s12.5 -44.5 12.5 -70.5v-350z" />
    <glyph glyph-name="one" unicode="1" horiz-adv-x="227" 
d="M68 0v623c16 0 27.167 4.33301 33.5 13s9.5 18.667 9.5 30h47v-666h-90z" />
    <glyph glyph-name="two" unicode="2" horiz-adv-x="392" 
d="M369 512c0 -44.667 -13.3311 -86.833 -39.998 -126.5s-64.667 -79.5 -114 -119.5c-35.333 -36 -59.666 -69.167 -72.999 -99.5s-20 -57.166 -20 -80.499h241v-86h-335v36c0 24 1.66699 46.833 5 68.5s10 43.834 20 66.501s24.167 46.5 42.5 71.5s42.5 52.5 72.5 82.5
c20 19.333 37.5 37 52.5 53s27.167 31.5 36.5 46.5s16.333 29.833 21 44.5s7 30.334 7 47.001c0 27.333 -6.66699 48.666 -20 63.999s-34 23 -62 23c-29.333 0 -50.5 -7.83301 -63.5 -23.5s-19.5 -37.834 -19.5 -66.501v-61h-80v62c0 22 3.33301 43.167 10 63.5
s16.667 38.166 30 53.499s30.166 27.5 50.499 36.5s44.166 13.5 71.499 13.5c30 0 55.667 -4.5 77 -13.5s38.666 -21.333 51.999 -37s23 -33.667 29 -54s9 -41.833 9 -64.5z" />
    <glyph glyph-name="three" unicode="3" horiz-adv-x="398" 
d="M365 145c0 -48 -14.333 -86.6641 -43 -115.997s-70 -44 -124 -44c-27.333 0 -51.166 4.16699 -71.499 12.5s-37.166 19.666 -50.499 33.999s-23.333 31.166 -30 50.499s-10 39.666 -10 60.999v60h80v-49c0 -30 6.33301 -52.667 19 -68s33 -23 61 -23
s48.833 7.33301 62.5 22s20.5 36 20.5 64v93c0 15.333 -4.83301 29.333 -14.5 42s-28.834 19 -57.501 19h-52v72h52c28.667 0 47.834 6.16699 57.501 18.5s14.5 26.5 14.5 42.5v80c0 28 -6.83301 49.5 -20.5 64.5s-34.5 22.5 -62.5 22.5s-48.333 -7.66699 -61 -23
s-19 -38 -19 -68v-49h-80v60c0 22 3.16699 42.5 9.5 61.5s16.166 35.667 29.499 50s30.166 25.666 50.499 33.999s44.5 12.5 72.5 12.5c54 0 95.333 -14.667 124 -44s43 -68 43 -116v-68c0 -28 -6.83301 -52 -20.5 -72s-33.167 -32.667 -58.5 -38
c24 -6.66699 43.167 -18.667 57.5 -36s21.5 -40.666 21.5 -69.999v-92z" />
    <glyph glyph-name="four" unicode="4" horiz-adv-x="387" 
d="M237 492l-134 -262h134v262zM317 151v-151h-80v151h-227v66l234 449h73v-436h59v-79h-59z" />
    <glyph glyph-name="five" unicode="5" horiz-adv-x="404" 
d="M372 666c-2 -30 -8.16504 -51.335 -18.498 -64.002s-29.833 -19 -58.5 -19h-157l-13 -193c10.667 16.667 26.334 30.167 47.001 40.5s46 15.5 76 15.5c38.667 0 69 -11.833 91 -35.5s33 -54.5 33 -92.5v-169c0 -50 -14.833 -89.833 -44.5 -119.5
s-71.834 -44.5 -126.501 -44.5c-26.667 0 -50.167 4.33301 -70.5 13s-37.333 20.334 -51 35.001s-23.834 31.5 -30.501 50.5s-10 38.833 -10 59.5v51h80v-40c0 -27.333 6.66699 -49.333 20 -66s34 -25 62 -25c55.333 0 83 30.333 83 91v150
c0 22.667 -5.83301 40.167 -17.5 52.5s-27.834 18.5 -48.501 18.5c-27.333 0 -48.833 -7.66699 -64.5 -23s-27.167 -32.666 -34.5 -51.999l-74 15l18 351h309z" />
    <glyph glyph-name="six" unicode="6" horiz-adv-x="424" 
d="M304 258c0 23.333 -6.16699 42.501 -18.5 57.501s-33.833 22.5 -64.5 22.5c-28 0 -49.833 -7.83301 -65.5 -23.5s-23.5 -34.5 -23.5 -56.5v-107c0 -26 7.83301 -47.167 23.5 -63.5s36.5 -24.5 62.5 -24.5c26.667 0 47.667 7.66699 63 23s23 34.666 23 57.999v114z
M391 156.001c0 -50.667 -15.165 -91.666 -45.498 -122.999s-72.833 -47 -127.5 -47c-54 0 -96.333 15.667 -127 47s-46 72.333 -46 123v347c0 54 15.667 97.167 47 129.5s74.333 48.5 129 48.5c27.333 0 51.166 -4.33301 71.499 -13s37.166 -20.334 50.499 -35.001
s23.5 -31.5 30.5 -50.5s10.5 -38.833 10.5 -59.5v-43h-80v32c0 60.667 -29.333 91 -88 91c-28 0 -49 -8.5 -63 -25.5s-21 -41.167 -21 -72.5v-157c12 15.333 28.5 29 49.5 41s46.833 18 77.5 18c42 0 74.5 -13 97.5 -39s34.5 -58 34.5 -96v-116z" />
    <glyph glyph-name="seven" unicode="7" horiz-adv-x="373" 
d="M368 607c-29.333 -56 -55.5 -109.002 -78.5 -159.002s-42.667 -99.167 -59 -147.5s-28.833 -97 -37.5 -146s-13.334 -100.5 -14.001 -154.5h-96c1.33301 46.667 7.16602 94.834 17.499 144.501s24.333 99.5 42 149.5s37.834 99.333 60.501 148
s46.334 95.334 71.001 140.001h-250v84h344v-59z" />
    <glyph glyph-name="eight" unicode="8" horiz-adv-x="425" 
d="M300 225c0 9.33301 -1.66895 18.833 -5.00195 28.5s-8.5 18.334 -15.5 26.001s-16 14 -27 19s-24.167 7.5 -39.5 7.5s-28.666 -2.5 -39.999 -7.5s-20.5 -11.333 -27.5 -19s-12.167 -16.334 -15.5 -26.001s-5 -19.167 -5 -28.5v-75c0 -28 8.33301 -49.5 25 -64.5
s37.667 -22.5 63 -22.5c24.667 0 45.334 7.5 62.001 22.5s25 36.5 25 64.5v75zM297.998 516c0 28 -8 49.5 -24 64.5s-36.333 22.5 -61 22.5c-25.333 0 -46 -7.5 -62 -22.5s-24 -36.5 -24 -64.5v-69c0 -9.33301 1.5 -18.833 4.5 -28.5s8 -18.5 15 -26.5s16 -14.5 27 -19.5
s24.167 -7.5 39.5 -7.5s28.333 2.5 39 7.5s19.5 11.5 26.5 19.5s12 16.833 15 26.5s4.5 19.167 4.5 28.5v69zM383.998 145c0 -48 -15 -86.667 -45 -116s-72 -44 -126 -44c-54.667 0 -97 14.667 -127 44s-45 68 -45 116v80c0 28 6.83301 51.5 20.5 70.5
s30.167 33.167 49.5 42.5c-19.333 9.33301 -35.333 23.5 -48 42.5s-19 42.5 -19 70.5v70c0 48 14.5 86.667 43.5 116s70.833 44 125.5 44c54 0 95.5 -14.667 124.5 -44s43.5 -68 43.5 -116v-70c0 -28 -6.33301 -51.5 -19 -70.5s-28.334 -33.167 -47.001 -42.5
c18.667 -9.33301 34.834 -23.5 48.501 -42.5s20.5 -42.5 20.5 -70.5v-80z" />
    <glyph glyph-name="nine" unicode="9" horiz-adv-x="434" 
d="M301 515c0 24 -7 44.666 -21 61.999s-35.667 26 -65 26c-28 0 -49.333 -7.66699 -64 -23s-22 -34.666 -22 -57.999v-121c0 -22.667 6.83301 -41.667 20.5 -57s35.5 -23 65.5 -23c28 0 49.333 7.83301 64 23.5s22 34.5 22 56.5v114zM389 157.999
c0 -54 -15.501 -96.335 -46.501 -127.002s-73.5 -46 -127.5 -46c-27.333 0 -51.5 3.83301 -72.5 11.5s-38.667 18.334 -53 32.001s-25.166 29.834 -32.499 48.501s-11 39 -11 61v43h79v-31c0 -30 8.5 -52 25.5 -66s39.5 -21 67.5 -21c28.667 0 49.667 8.16699 63 24.5
s20 38.5 20 66.5v154c-12 -16 -27 -29.833 -45 -41.5s-42.667 -17.5 -74 -17.5c-22 0 -41.5 3.66699 -58.5 11s-31.5 17.333 -43.5 30s-21 27.5 -27 44.5s-9 35.167 -9 54.5v121c0 50.667 14.833 91.834 44.5 123.501s71.834 47.5 126.501 47.5
c57.333 0 100.666 -15.833 129.999 -47.5s44 -73.834 44 -126.501v-349z" />
    <glyph glyph-name="colon" unicode=":" horiz-adv-x="189" 
d="M54 0v113h82v-113h-82zM54 325v113h82v-113h-82z" />
    <glyph glyph-name="semicolon" unicode=";" horiz-adv-x="189" 
d="M136 13c0 -32 -7.83301 -58.001 -23.5 -78.001s-41.167 -30 -76.5 -30v29c17.333 0 30.833 5.83301 40.5 17.5s14.5 27.834 14.5 48.501h-37v113h82v-100zM54 324.999v113h82v-113h-82z" />
    <glyph glyph-name="semicolon" unicode="&#x37e;" horiz-adv-x="189" 
d="M136 13c0 -32 -7.83301 -58.001 -23.5 -78.001s-41.167 -30 -76.5 -30v29c17.333 0 30.833 5.83301 40.5 17.5s14.5 27.834 14.5 48.501h-37v113h82v-100zM54 324.999v113h82v-113h-82z" />
    <glyph glyph-name="less" unicode="&#x3c;" horiz-adv-x="464" 
d="M51 320v27l339 219v-91l-220 -142l220 -142v-91z" />
    <glyph glyph-name="equal" unicode="=" horiz-adv-x="343" 
d="M35 218v80h273v-80h-273zM35 378v79h273v-79h-273z" />
    <glyph glyph-name="greater" unicode="&#x3e;" horiz-adv-x="464" 
d="M75 100v91l220 142l-220 143v90l338 -220v-26z" />
    <glyph glyph-name="question" unicode="?" horiz-adv-x="368" 
d="M118 0v111h83v-111h-83zM348 515c0 -38 -8.49902 -72.835 -25.499 -104.502s-41.833 -63.5 -74.5 -95.5c-20.667 -20 -34.5 -38.167 -41.5 -54.5s-10.5 -36.5 -10.5 -60.5h-68c0 20 1.66699 37.333 5 52s8.66602 29 15.999 43s16.833 29 28.5 45l42.5 58
c13.333 18 23.166 37 29.499 57s9.5 39.333 9.5 58c0 32.667 -6.33301 55.834 -19 69.501s-31.667 20.5 -57 20.5c-27.333 0 -47.166 -8.33301 -59.499 -25s-18.5 -40 -18.5 -70v-62h-81v71c0 23.333 3 44.833 9 64.5s15.333 36.834 28 51.501s28.834 26.167 48.501 34.5
s43.167 12.5 70.5 12.5c30.667 0 56.667 -4.5 78 -13.5s38.666 -21 51.999 -36s23 -32.5 29 -52.5s9 -41 9 -63z" />
    <glyph glyph-name="at" unicode="@" horiz-adv-x="637" 
d="M384 361c0 14 -2.83301 26.5029 -8.5 37.5029s-16.167 16.5 -31.5 16.5c-14.667 0 -28.167 -4.83301 -40.5 -14.5s-22.833 -21.834 -31.5 -36.501s-15.5 -30.834 -20.5 -48.501s-7.5 -34.834 -7.5 -51.501c0 -19.333 4.33301 -34 13 -44s19.667 -15 33 -15
c17.333 0 31.5 7.16699 42.5 21.5s20.5 33.5 28.5 57.5zM611 355.003c0 -26.667 -3.67285 -52.498 -11.0059 -77.498s-18.166 -47.333 -32.499 -67s-32.166 -35.334 -53.499 -47.001s-45.666 -17.5 -72.999 -17.5c-22 0 -41 7.16699 -57 21.5s-23.667 32.833 -23 55.5
c-12 -20.667 -26.167 -37.167 -42.5 -49.5s-34.833 -18.5 -55.5 -18.5c-26 0 -47 9.33301 -63 28s-24 44.334 -24 77.001c0 22 4.16699 44.667 12.5 68s19.5 44.5 33.5 63.5s30.667 34.667 50 47s40 18.5 62 18.5c18.667 0 33.5 -4.66699 44.5 -14s17.833 -22.333 20.5 -39
l16 48h66l-59 -188c-7.33301 -21.333 -8.16602 -38.833 -2.49902 -52.5s18.167 -20.5 37.5 -20.5c30 0 54.833 14.667 74.5 44s29.5 69.666 29.5 120.999c0 34 -5.83301 65.167 -17.5 93.5s-27.667 52.5 -48 72.5s-44.666 35.5 -72.999 46.5s-59.5 16.5 -93.5 16.5
c-36.667 0 -70.334 -7.33301 -101.001 -22s-57 -34.5 -79 -59.5s-39.167 -54.5 -51.5 -88.5s-18.5 -70.333 -18.5 -109c0 -40.667 6.16699 -77.834 18.5 -111.501s29.5 -62.667 51.5 -87s48.333 -43.166 79 -56.499s64.334 -20 101.001 -20
c34.667 0 66.334 5.66699 95.001 17s53.334 27 74.001 47l28 -35c-25.333 -23.333 -54.5 -41.666 -87.5 -54.999s-69.5 -20 -109.5 -20c-42.667 0 -82.167 7.83301 -118.5 23.5s-67.833 37.667 -94.5 66s-47.667 62.166 -63 101.499s-23 82.666 -23 129.999
c0 45.333 7.66699 87.833 23 127.5s36.333 74 63 103s58.167 51.833 94.5 68.5s75.833 25 118.5 25c49.333 0 91.666 -8.66699 126.999 -26s64.5 -39.5 87.5 -66.5s40 -56.667 51 -89s16.5 -63.5 16.5 -93.5z" />
    <glyph glyph-name="A" unicode="A" horiz-adv-x="417" 
d="M206 517l-55 -273h110zM313 0l-35 163h-144l-35 -163h-92l151 666h100l151 -666h-96z" />
    <glyph glyph-name="B" unicode="B" horiz-adv-x="446" 
d="M313 224c0 50 -23.667 75 -71 75h-93v-217h103c22.667 0 38.5 6 47.5 18s13.5 27.333 13.5 46v78zM308 519c0 19.333 -4.33203 35 -12.999 47s-24.334 18 -47.001 18h-99v-210h88c47.333 0 71 25 71 75v70zM408.001 149c0 -48 -12.5 -84.833 -37.5 -110.5
s-64.5 -38.5 -118.5 -38.5h-198v666h193c54 0 93.167 -12.833 117.5 -38.5s36.5 -62.5 36.5 -110.5v-54c0 -68 -28.333 -108 -85 -120c32.667 -6.66699 56.167 -20.667 70.5 -42s21.5 -48.333 21.5 -81v-71z" />
    <glyph glyph-name="C" unicode="C" horiz-adv-x="444" 
d="M412 161c0 -24 -3.5 -46.668 -10.5 -68.001s-17.833 -40 -32.5 -56s-33.5 -28.667 -56.5 -38s-50.167 -14 -81.5 -14s-58.666 5 -81.999 15s-42.666 23.5 -57.999 40.5s-26.833 36.667 -34.5 59s-11.5 45.833 -11.5 70.5v326c0 24.667 3.83301 48 11.5 70
s19.167 41.5 34.5 58.5s34.666 30.5 57.999 40.5s50.666 15 81.999 15s58.5 -4.5 81.5 -13.5s41.833 -21.5 56.5 -37.5s25.5 -34.667 32.5 -56s10.5 -44 10.5 -68v-72h-85v70c0 28 -7.66699 50.5 -23 67.5s-38.666 25.5 -69.999 25.5c-32 0 -55.667 -8.5 -71 -25.5
s-23 -38.167 -23 -63.5v-348c0 -25.333 7.66699 -46.5 23 -63.5s39 -25.5 71 -25.5c31.333 0 54.666 8.33301 69.999 25s23 39.334 23 68.001v70h85v-72z" />
    <glyph glyph-name="D" unicode="D" horiz-adv-x="465" 
d="M326 481c0 32 -7.16699 56.333 -21.5 73s-37.166 25 -68.499 25h-87v-492h87c31.333 0 54.166 8.33301 68.499 25s21.5 40.667 21.5 72v297zM420 180c0 -26 -3.5 -50 -10.5 -72s-17.667 -41 -32 -57s-32.666 -28.5 -54.999 -37.5s-49.166 -13.5 -80.499 -13.5h-188v666
h188c31.333 0 58.166 -4.5 80.499 -13.5s40.666 -21.5 54.999 -37.5s25 -35 32 -57s10.5 -46 10.5 -72v-306z" />
    <glyph glyph-name="E" unicode="E" horiz-adv-x="393" 
d="M54 0v666h310v-86h-216v-190h156v-82h-156v-222h216v-86h-310z" />
    <glyph glyph-name="F" unicode="F" horiz-adv-x="377" 
d="M149 581v-205h163v-83h-163v-293h-95v667h307v-86h-212z" />
    <glyph glyph-name="G" unicode="G" horiz-adv-x="453" 
d="M366 0l-17.9971 51.001c-11.333 -21.333 -28.333 -37.666 -51 -48.999s-49 -17 -79 -17c-28.667 0 -53.834 4.83301 -75.501 14.5s-39.834 22.667 -54.501 39s-25.5 35.666 -32.5 57.999s-10.5 46.166 -10.5 71.499v330c0 24.667 3.83301 48 11.5 70
s19.167 41.333 34.5 58s34.666 29.834 57.999 39.501s50.666 14.5 81.999 14.5s58.333 -4.5 81 -13.5s41.167 -21.5 55.5 -37.5s24.833 -35.167 31.5 -57.5s10 -46.833 10 -73.5v-39h-90v50c0 11.333 -1.66699 22.166 -5 32.499s-8.5 19.5 -15.5 27.5
s-16.167 14.5 -27.5 19.5s-24.666 7.5 -39.999 7.5s-28.666 -2.5 -39.999 -7.5s-20.833 -11.667 -28.5 -20s-13.334 -17.833 -17.001 -28.5s-5.5 -21.667 -5.5 -33v-348c0 -11.333 1.83301 -22.5 5.5 -33.5s9.16699 -20.667 16.5 -29s16.666 -15 27.999 -20s25 -7.5 41 -7.5
s29.667 2.5 41 7.5s20.833 11.667 28.5 20s13.334 18 17.001 29s5.5 22.167 5.5 33.5v103h-89v80h179v-342h-47z" />
    <glyph glyph-name="H" unicode="H" horiz-adv-x="486" 
d="M338 0v292h-189v-292h-95v666h95v-289h189v289h94v-666h-94z" />
    <glyph glyph-name="I" unicode="I" horiz-adv-x="202" 
d="M54 0v666h95v-666h-95z" />
    <glyph glyph-name="J" unicode="J" horiz-adv-x="423" 
d="M371 170c0 -26.667 -3.16699 -51.333 -9.5 -74s-16.333 -42.334 -30 -59.001s-31.167 -29.5 -52.5 -38.5s-47 -13.5 -77 -13.5c-57.333 0 -100.5 15.333 -129.5 46s-43.5 73.334 -43.5 128.001v106h89v-103c0 -61.333 27 -92 81 -92c51.333 0 77 30.667 77 92v504h95
v-496z" />
    <glyph glyph-name="K" unicode="K" horiz-adv-x="443" 
d="M327 0l-126 297l-53 -91v-206h-94v666h94v-324l181 324h101l-168 -286l168 -380h-103z" />
    <glyph glyph-name="L" unicode="L" horiz-adv-x="373" 
d="M54 0v666h94v-580h211v-86h-305z" />
    <glyph glyph-name="M" unicode="M" horiz-adv-x="606" 
d="M466 0v519l-27 -127l-91 -392h-93l-89 392l-28 127v-519h-84v666h132l91 -416l27 -127l27 128l89 415h132v-666h-86z" />
    <glyph glyph-name="N" unicode="N" horiz-adv-x="484" 
d="M364 0l-165 324l-56 117v-441h-90v666h77l158 -330l53 -117v447h90v-666h-67z" />
    <glyph glyph-name="O" unicode="O" horiz-adv-x="462" 
d="M323 498c0 28.667 -7.5 52.167 -22.5 70.5s-38.167 27.5 -69.5 27.5s-54.333 -9.16699 -69 -27.5s-22 -41.833 -22 -70.5v-330c0 -28.667 7.33301 -52.167 22 -70.5s37.667 -27.5 69 -27.5s54.5 9.16699 69.5 27.5s22.5 41.833 22.5 70.5v330zM417 176
c0 -27.333 -3.83301 -52.666 -11.5 -75.999s-19.167 -43.5 -34.5 -60.5s-34.666 -30.333 -57.999 -40s-50.666 -14.5 -81.999 -14.5s-58.666 4.83301 -81.999 14.5s-42.666 23 -57.999 40s-26.833 37.167 -34.5 60.5s-11.5 48.666 -11.5 75.999v314
c0 27.333 3.83301 52.5 11.5 75.5s19.167 43 34.5 60s34.666 30.333 57.999 40s50.666 14.5 81.999 14.5s58.666 -4.83301 81.999 -14.5s42.666 -23 57.999 -40s26.833 -37 34.5 -60s11.5 -48.167 11.5 -75.5v-314z" />
    <glyph glyph-name="P" unicode="P" horiz-adv-x="430" 
d="M308 515c0 22 -4.5 39.001 -13.5 51.001s-24.5 18 -46.5 18h-100v-236h100c22 0 37.5 6.16699 46.5 18.5s13.5 29.166 13.5 50.499v98zM403 420.001c0 -47.333 -12.5 -84.667 -37.5 -112s-64.5 -41 -118.5 -41h-99v-267h-94v666h193c54 0 93.5 -13.667 118.5 -41
s37.5 -65 37.5 -113v-92z" />
    <glyph glyph-name="Q" unicode="Q" horiz-adv-x="462" 
d="M322 507c0 11.333 -1.83203 22.333 -5.49902 33s-9.16699 20.167 -16.5 28.5s-16.833 15 -28.5 20s-25.167 7.5 -40.5 7.5s-28.666 -2.5 -39.999 -7.5s-20.833 -11.667 -28.5 -20s-13.334 -17.833 -17.001 -28.5s-5.5 -21.667 -5.5 -33v-348
c0 -11.333 1.83301 -22.333 5.5 -33s9.33398 -20.167 17.001 -28.5s17.167 -15 28.5 -20s24.666 -7.5 39.999 -7.5c19.333 0 36.666 4.33301 51.999 13l-27 25l66 52v347zM454.001 0c-6.66699 -5.33301 -13.499 -9.16797 -20.499 -11.501s-17.833 -3.5 -32.5 -3.5
c-12.667 0 -25 2.33301 -37 7s-22.333 10.667 -31 18c-30 -16.667 -64 -25 -102 -25c-31.333 0 -58.666 5 -81.999 15s-42.666 23.333 -57.999 40s-26.833 36 -34.5 58s-11.5 45.333 -11.5 70v330c0 24.667 3.83301 48 11.5 70s19.167 41.333 34.5 58
s34.666 29.834 57.999 39.501s50.666 14.5 81.999 14.5s58.5 -4.83301 81.5 -14.5s42.167 -22.834 57.5 -39.501s26.833 -36 34.5 -58s11.5 -45.333 11.5 -70v-344c0 -31.333 -7.66699 -58.666 -23 -81.999c7.33301 -6.66699 15.666 -11.167 24.999 -13.5
s21.333 -3.5 36 -3.5v-55z" />
    <glyph glyph-name="R" unicode="R" horiz-adv-x="451" 
d="M308 519c0 19.333 -4.5 35 -13.5 47s-24.833 18 -47.5 18h-98v-222h88c47.333 0 71 25.333 71 76v81zM413 -7c-37.333 0 -63.5 6.33301 -78.5 19s-22.5 36.334 -22.5 71.001v130c0 23.333 -5.5 42 -16.5 56s-28.5 21 -52.5 21h-94v-290h-95v666h193
c54 0 93.5 -12.833 118.5 -38.5s37.5 -62.5 37.5 -110.5v-73c0 -32.667 -6.33301 -58.667 -19 -78s-35 -32.333 -67 -39c32 -5.33301 54.833 -19.333 68.5 -42s20.5 -47.334 20.5 -74.001v-121c0 -17.333 9.33301 -26 28 -26v-71h-21z" />
    <glyph glyph-name="S" unicode="S" horiz-adv-x="427" 
d="M396 166c0 -27.333 -4.66992 -52.1699 -14.0029 -74.5029s-22.166 -41.333 -38.499 -57s-35.666 -27.834 -57.999 -36.501s-46.5 -13 -72.5 -13c-27.333 0 -52.333 4.33301 -75 13s-42 20.5 -58 35.5s-28.333 32.833 -37 53.5s-13 43 -13 67v46h94v-31
c0 -68.667 30 -103 90 -103c29.333 0 51.333 8 66 24s22 36.667 22 62c0 14.667 -1.83301 28.167 -5.5 40.5s-9.66699 24.333 -18 36s-19.5 23.334 -33.5 35.001s-31.667 24.167 -53 37.5c-18.667 12 -37.167 25.167 -55.5 39.5s-34.833 30 -49.5 47s-26.5 35.667 -35.5 56
s-13.5 42.5 -13.5 66.5s3.83301 46.333 11.5 67s19 38.667 34 54s33.5 27.333 55.5 36s47 13 75 13c27.333 0 51.833 -4.16699 73.5 -12.5s40.167 -20 55.5 -35s27.166 -32.833 35.499 -53.5s12.5 -43.334 12.5 -68.001v-43h-90v31c0 28 -7 51.667 -21 71s-37 29 -69 29
c-26 0 -45.667 -7 -59 -21s-20 -32.333 -20 -55c0 -14.667 1.83301 -28 5.5 -40s10.334 -23.667 20.001 -35s22.334 -23.166 38.001 -35.499s35.5 -26.166 59.5 -41.499c24 -16 45 -31.5 63 -46.5s32.667 -30.667 44 -47s19.833 -33.666 25.5 -51.999
s8.5 -38.166 8.5 -59.499z" />
    <glyph glyph-name="T" unicode="T" horiz-adv-x="394" 
d="M245 579v-579h-95v579h-137v87h368v-87h-136z" />
    <glyph glyph-name="U" unicode="U" horiz-adv-x="475" 
d="M423 159c0 -27.333 -4.49707 -51.833 -13.4971 -73.5s-21.833 -40 -38.5 -55s-36.334 -26.333 -59.001 -34s-47.667 -11.5 -75 -11.5c-26.667 0 -51.334 3.83301 -74.001 11.5s-42.334 19 -59.001 34s-29.5 33.333 -38.5 55s-13.5 46.167 -13.5 73.5v507h95v-507
c0 -60.667 30.333 -91 91 -91s91 30.333 91 91v507h94v-507z" />
    <glyph glyph-name="V" unicode="V" horiz-adv-x="429" 
d="M260 0h-91l-157 666h99l107 -515l107 515h96z" />
    <glyph glyph-name="W" unicode="W" horiz-adv-x="618" 
d="M487 0h-92l-84 459l-90 -459h-92l-117 666h96l70 -492l94 492h86l86 -492l73 492h93z" />
    <glyph glyph-name="X" unicode="X" horiz-adv-x="432" 
d="M322 0l-105 255l-106 -255h-97l155 339l-146 327h102l97 -247l98 247h97l-146 -323l153 -343h-102z" />
    <glyph glyph-name="Y" unicode="Y" horiz-adv-x="407" 
d="M252 268v-268h-94v268l-161 398h102l109 -307l109 307h95z" />
    <glyph glyph-name="Z" unicode="Z" horiz-adv-x="413" 
d="M145 86h235v-86h-355v43l247 536h-234v87h351v-43z" />
    <glyph glyph-name="bracketleft" unicode="[" horiz-adv-x="295" 
d="M101 -150v903h195v-70h-118v-764h118v-69h-195z" />
    <glyph glyph-name="backslash" unicode="\" horiz-adv-x="262" 
d="M198 -64l-200 793h65l199 -793h-64z" />
    <glyph glyph-name="bracketright" unicode="]" horiz-adv-x="295" 
d="M-1 -150v69h118v764h-118v70h195v-903h-195z" />
    <glyph glyph-name="asciicircum" unicode="^" horiz-adv-x="275" 
d="M264 549c-6.66699 -2 -14 -3.66699 -22 -5s-15.333 -2 -22 -2c-20.667 0 -38.334 7 -53.001 21s-25 33 -31 57c-5.33301 -24 -15.5 -43 -30.5 -57s-33.167 -21 -54.5 -21c-6.66699 0 -13 0.666992 -19 2s-12.667 3 -20 5v26c43.333 0 73.333 30.333 90 91h73
c16.667 -60.667 46.334 -91 89.001 -91v-26z" />
    <glyph glyph-name="underscore" unicode="_" horiz-adv-x="337" 
d="M0 -76v76h337v-76h-337z" />
    <glyph glyph-name="grave" unicode="`" horiz-adv-x="178" 
d="M96 538l-77 135h90l41 -135h-54z" />
    <glyph glyph-name="a" unicode="a" horiz-adv-x="372" 
d="M240 221c-87.333 -10.667 -131 -41.667 -131 -93v-12c0 -15.333 4.33301 -28.333 13 -39s21.667 -16 39 -16c20 0 38.167 6.5 54.5 19.5s24.5 30.167 24.5 51.5v89zM322 -8c-16.667 0 -31 4.33203 -43 12.999s-18.333 23.667 -19 45
c-13.333 -18 -29.833 -32.167 -49.5 -42.5s-41.167 -15.5 -64.5 -15.5c-36 0 -64.333 10.667 -85 32s-31 51 -31 89v11c0 26.667 6 49 18 67s27.833 32.833 47.5 44.5s42 21 67 28s50.833 12.5 77.5 16.5v65c0 18 -4.66699 32.167 -14 42.5s-23.666 15.5 -42.999 15.5
c-23.333 0 -38.666 -5 -45.999 -15s-11 -25.667 -11 -47v-24h-79v27c0 18 2.66699 35 8 51s13.666 30 24.999 42s25.5 21.5 42.5 28.5s37.167 10.5 60.5 10.5c25.333 0 46.666 -3.66699 63.999 -11s31.5 -17.666 42.5 -30.999s18.833 -28.833 23.5 -46.5s7 -37.167 7 -58.5
v-248c0 -17.333 9 -26 27 -26v-63h-25z" />
    <glyph glyph-name="b" unicode="b" horiz-adv-x="385" 
d="M263 321c0 28.667 -5.33301 49.5 -16 62.5s-26.334 19.5 -47.001 19.5c-21.333 0 -38.166 -6.83301 -50.499 -20.5s-18.5 -32.5 -18.5 -56.5v-190c0 -25.333 6.83301 -44.5 20.5 -57.5s29.167 -19.5 46.5 -19.5c20.667 0 36.667 6.5 48 19.5s17 33.833 17 62.5v180z
M345 129c0 -42 -10.999 -75.332 -32.999 -99.999s-51 -37 -87 -37c-21.333 0 -42.333 5.16699 -63 15.5s-36 29.166 -46 56.499l-13 -64h-55v666h83v-258c10 19.333 24.167 35.5 42.5 48.5s40.166 19.5 65.499 19.5c35.333 0 61.833 -12.833 79.5 -38.5
s26.5 -58.167 26.5 -97.5v-211z" />
    <glyph glyph-name="c" unicode="c" horiz-adv-x="357" 
d="M325 145c0 -48 -11.667 -85.499 -35 -112.499s-58 -40.5 -104 -40.5c-45.333 0 -81 13.833 -107 41.5s-39 65.5 -39 113.5v172c0 48 13 86.167 39 114.5s61.667 42.5 107 42.5c46 0 80.667 -13.667 104 -41s35 -65 35 -113v-20h-74v33c0 20 -5.33301 36.5 -16 49.5
s-26.667 19.5 -48 19.5s-37.5 -6.5 -48.5 -19.5s-16.5 -31.167 -16.5 -54.5v-193c0 -48.667 21.667 -73 65 -73c21.333 0 37.333 6.16699 48 18.5s16 29.166 16 50.499v32h74v-20z" />
    <glyph glyph-name="d" unicode="d" horiz-adv-x="385" 
d="M254 328c0 24 -6 43 -18 57s-28.333 21 -49 21s-36.667 -6.66699 -48 -20s-17 -34 -17 -62v-183c0 -28.667 5.66699 -49.5 17 -62.5s27.333 -19.5 48 -19.5c17.333 0 32.833 6.5 46.5 19.5s20.5 32.167 20.5 57.5v192zM276 0l-6.00195 63.999
c-10.667 -27.333 -26.167 -46.166 -46.5 -56.499s-41.166 -15.5 -62.499 -15.5c-36 0 -65.167 12.333 -87.5 37s-33.5 58 -33.5 100v203c0 44 10.667 79 32 105s48.666 39 81.999 39c24.667 0 44.334 -4.5 59.001 -13.5s28.334 -22.5 41.001 -40.5v244h84v-666h-62z" />
    <glyph glyph-name="e" unicode="e" horiz-adv-x="359" 
d="M251 333c0 21.333 -5.33301 38.5 -16 51.5s-26.667 19.5 -48 19.5s-37.5 -6.5 -48.5 -19.5s-16.5 -30.167 -16.5 -51.5v-56h129v56zM325 145c0 -48 -11.833 -85.5 -35.5 -112.5s-58.167 -40.5 -103.5 -40.5s-81 13.833 -107 41.5s-39 65.5 -39 113.5v172
c0 48 13 86.167 39 114.5s61.667 42.5 107 42.5s79.833 -14.167 103.5 -42.5s35.5 -66.5 35.5 -114.5v-90h-203v-95c0 -21.333 5.5 -38.5 16.5 -51.5s27.167 -19.5 48.5 -19.5s37.333 6.5 48 19.5s16 30.167 16 51.5v32h74v-21z" />
    <glyph glyph-name="f" unicode="f" horiz-adv-x="234" 
d="M158 393v-392.999h-85v393h-54v70h54v49c0 48 10.167 85.667 30.5 113s51.5 41 93.5 41h34v-71h-23c-20 0 -34.167 -5.83301 -42.5 -17.5s-12.5 -27.834 -12.5 -48.501v-66h69v-70h-64z" />
    <glyph glyph-name="g" unicode="g" horiz-adv-x="370" 
d="M278 -23c0 14.667 -5.83301 26.667 -17.5 36s-34.5 14 -68.5 14c-31.333 0 -54 -5 -68 -15s-21 -22.333 -21 -37v-20c0 -14.667 7 -27.667 21 -39s36.667 -17 68 -17s53.5 6 66.5 18s19.5 25.333 19.5 40v20zM253 339c0 19.333 -5.83301 36 -17.5 50
s-27.834 21 -48.501 21c-21.333 0 -37.833 -7 -49.5 -21s-17.5 -30.667 -17.5 -50v-39c0 -19.333 5.83301 -36 17.5 -50s28.167 -21 49.5 -21c20.667 0 36.834 7 48.501 21s17.5 30.667 17.5 50v39zM366 480c0 -19.333 -5.00098 -33.4971 -15.001 -42.4971
s-20.667 -13.5 -32 -13.5c-5.33301 0 -10.833 0.333008 -16.5 1s-11.5 2.66699 -17.5 6c15.333 -13.333 26.5 -28 33.5 -44s10.5 -32.667 10.5 -50v-35c0 -20 -3.33301 -38.333 -10 -55s-16.334 -31.167 -29.001 -43.5s-27.667 -21.833 -45 -28.5s-36.666 -10 -57.999 -10
c-4.66699 0 -11.667 0.5 -21 1.5s-15.666 2.16699 -18.999 3.5c-11.333 0 -20.833 -4.16699 -28.5 -12.5s-11.5 -16.833 -11.5 -25.5c0 -11.333 6.83301 -20.666 20.5 -27.999s40.167 -11 79.5 -11c50.667 0 87.834 -9.66699 111.501 -29s35.5 -45 35.5 -77v-22
c0 -19.333 -3.66699 -37.166 -11 -53.499s-18 -30.666 -32 -42.999s-31 -22 -51 -29s-42.667 -10.5 -68 -10.5c-23.333 0 -45 2.66699 -65 8s-37.333 13 -52 23s-26.167 22 -34.5 36s-12.5 29.667 -12.5 47v17c0 20 6 36.667 18 50s31 23.666 57 30.999
c-22 5.33301 -38.5 14.666 -49.5 27.999s-16.5 27.666 -16.5 42.999c0 16.667 6.83301 32.167 20.5 46.5s30.167 23.166 49.5 26.499c-21.333 10.667 -37 26.834 -47 48.501s-15 45.5 -15 71.5v30c0 20 3.66699 38.667 11 56s17.333 32.166 30 44.499
s27.667 22.166 45 29.499s36 11 56 11c18 0 31.833 -1.83301 41.5 -5.5s17.167 -5.5 22.5 -5.5c20.667 0 34.667 5.33301 42 16s11 24 11 40h59c1.33301 -10.667 2.16602 -18.834 2.49902 -24.501s0.5 -11.167 0.5 -16.5z" />
    <glyph glyph-name="h" unicode="h" horiz-adv-x="393" 
d="M263 0l-0.00292969 342c0 20 -5 35.833 -15 47.5s-23.667 17.5 -41 17.5c-12 0 -22.667 -3.83301 -32 -11.5s-17.166 -16.667 -23.499 -27s-11.166 -21.333 -14.499 -33s-5 -21.5 -5 -29.5v-306h-84v666h84v-277c10.667 30 26.334 51.833 47.001 65.5
s41.667 20.5 63 20.5c32.667 0 58.5 -11.833 77.5 -35.5s28.5 -55.167 28.5 -94.5v-345h-85z" />
    <glyph glyph-name="i" unicode="i" horiz-adv-x="180" 
d="M48 0v468h84v-468h-84zM51 543v89h78v-89h-78z" />
    <glyph glyph-name="j" unicode="j" horiz-adv-x="180" 
d="M132 -31c0 -42 -8.50098 -74.833 -25.501 -98.5s-46.833 -35.5 -89.5 -35.5h-31v64h11c20.667 0 34.334 4 41.001 12s10 19.667 10 35v522h84v-499zM50.999 543v89h78v-89h-78z" />
    <glyph glyph-name="k" unicode="k" horiz-adv-x="369" 
d="M272 0l-88 207l-52 -84v-123h-84v666h84v-431l130 234h84l-110 -197l123 -272h-87z" />
    <glyph glyph-name="l" unicode="l" horiz-adv-x="180" 
d="M48 0v666h84v-666h-84z" />
    <glyph glyph-name="m" unicode="m" horiz-adv-x="552" 
d="M423 0v349.002c0 17.333 -3.66699 31.166 -11 41.499s-18.333 15.5 -33 15.5c-12 0 -21.667 -3.83301 -29 -11.5s-13.333 -16.667 -18 -27s-7.83398 -21.333 -9.50098 -33s-2.5 -21.5 -2.5 -29.5v-305h-85v350c0 17.333 -3.33301 31.166 -10 41.499
s-17.334 15.5 -32.001 15.5c-12 0 -22 -3.83301 -30 -11.5s-14.167 -16.667 -18.5 -27s-7.5 -21.333 -9.5 -33s-3 -21.5 -3 -29.5v-306h-84v468h71l5 -80c12 32 26.833 54.5 44.5 67.5s37.834 19.5 60.501 19.5s40.834 -6.66699 54.501 -20s23.834 -31.666 30.501 -54.999
c11.333 27.333 25.166 46.666 41.499 57.999s35.833 17 58.5 17c30 0 52.833 -10.5 68.5 -31.5s23.5 -50.5 23.5 -88.5v-355h-83z" />
    <glyph glyph-name="n" unicode="n" horiz-adv-x="394" 
d="M263 0l-0.00195312 342c0 20 -5 35.833 -15 47.5s-23.667 17.5 -41 17.5c-12 0 -22.667 -3.83301 -32 -11.5s-17.166 -16.667 -23.499 -27s-11.166 -21.333 -14.499 -33s-5 -21.5 -5 -29.5v-306h-84v468h70l6 -93c12.667 36 28.167 61.667 46.5 77s39.5 23 63.5 23
c38 0 66.5 -11.833 85.5 -35.5s28.5 -55.167 28.5 -94.5v-345h-85z" />
    <glyph glyph-name="o" unicode="o" horiz-adv-x="374" 
d="M251 335c0 20 -5.33301 36.5 -16 49.5s-26.667 19.5 -48 19.5s-37.333 -6.5 -48 -19.5s-16 -29.5 -16 -49.5v-202c0 -21.333 5.33301 -38.166 16 -50.499s26.667 -18.5 48 -18.5s37.333 6.16699 48 18.5s16 29.166 16 50.499v202zM333 147c0 -48 -13 -85.833 -39 -113.5
s-61.667 -41.5 -107 -41.5s-81.166 13.833 -107.499 41.5s-39.5 65.5 -39.5 113.5v172c0 48 13.167 86.167 39.5 114.5s62.166 42.5 107.499 42.5s81 -14.167 107 -42.5s39 -66.5 39 -114.5v-172z" />
    <glyph glyph-name="p" unicode="p" horiz-adv-x="385" 
d="M262 327c0 54.667 -21.333 82 -64 82c-17.333 0 -32.833 -6.5 -46.5 -19.5s-20.5 -32.5 -20.5 -58.5v-189c0 -24 6 -43 18 -57s28.333 -21 49 -21c42.667 0 64 27.667 64 83v180zM344 122c0 -18.667 -2.66602 -36 -7.99902 -52s-12.833 -29.833 -22.5 -41.5
s-20.834 -20.667 -33.501 -27s-26.667 -9.5 -42 -9.5c-24.667 0 -45.167 4.16699 -61.5 12.5s-31.5 22.166 -45.5 41.499v-208h-83v630h62l6 -64c10 26.667 25.333 45.334 46 56.001s41.667 16 63 16c36 0 64.833 -12.333 86.5 -37s32.5 -58 32.5 -100v-217z" />
    <glyph glyph-name="q" unicode="q" horiz-adv-x="385" 
d="M254 330c0 26 -6.83301 45.499 -20.5 58.499s-29.167 19.5 -46.5 19.5c-20.667 0 -36.667 -6.66699 -48 -20s-17 -34 -17 -62v-181c0 -28.667 5.66699 -49.5 17 -62.5s27.333 -19.5 48 -19.5s37 6.83301 49 20.5s18 32.834 18 57.501v189zM254 -163.001
l-0.00488281 221.999c-11.333 -22 -25.666 -38.833 -42.999 -50.5s-40.333 -17.5 -69 -17.5c-14 0 -27.167 3.16699 -39.5 9.5s-23.166 15.333 -32.499 27s-16.666 25.5 -21.999 41.5s-8 33.333 -8 52v216c0 42.667 11 76.334 33 101.001s51.333 37 88 37
c10.667 0 21.334 -1.33301 32.001 -4s20.834 -6.83398 30.501 -12.501s18.667 -13.167 27 -22.5s14.833 -20.666 19.5 -33.999l13 65h55v-630h-84z" />
    <glyph glyph-name="r" unicode="r" horiz-adv-x="264" 
d="M252 386c-44.667 5.33301 -75.833 2.33203 -93.5 -9.00098s-26.5 -27.666 -26.5 -48.999v-328h-84v468h70l7 -83c12 38.667 28.5 64 49.5 76s46.833 15.333 77.5 10v-85z" />
    <glyph glyph-name="s" unicode="s" horiz-adv-x="344" 
d="M315 122c0 -17.333 -3.16895 -33.8301 -9.50195 -49.4971s-15.5 -29.5 -27.5 -41.5s-26.667 -21.5 -44 -28.5s-37 -10.5 -59 -10.5c-47.333 0 -83 12.667 -107 38s-36 58.333 -36 99v23h70v-21c0 -25.333 6.66699 -43.5 20 -54.5s30.666 -16.5 51.999 -16.5
c42.667 0 64 18.667 64 56c0 9.33301 -1 18 -3 26s-6 15.5 -12 22.5s-14.333 14.167 -25 21.5s-24.667 15 -42 23c-38 16 -67 35.167 -87 57.5s-30 49.833 -30 82.5c0 18 3.16699 34.667 9.5 50s15.5 28.666 27.5 39.999s26.333 20.333 43 27s35.334 10 56.001 10
c46.667 0 80.834 -11.333 102.501 -34s32.5 -54.334 32.5 -95.001v-18h-68v20c0 36.667 -22 55 -66 55c-19.333 0 -34.166 -4.33301 -44.499 -13s-15.5 -20.334 -15.5 -35.001c0 -8.66699 1.5 -16.667 4.5 -24s8 -14.5 15 -21.5s16.5 -14 28.5 -21s27 -14.833 45 -23.5
c38 -16.667 65.167 -36.5 81.5 -59.5s24.5 -51.167 24.5 -84.5z" />
    <glyph glyph-name="t" unicode="t" horiz-adv-x="239" 
d="M156 393l-0.000976562 -246c0 -30 1.66699 -56.667 5 -80s10 -45.666 20 -66.999h-86c-9.33301 19.333 -15.666 40.166 -18.999 62.499s-5 50.5 -5 84.5v246h-54v70h59v84l80 27v-111h64v-70h-64z" />
    <glyph glyph-name="u" unicode="u" horiz-adv-x="395" 
d="M277 0l-5.99805 80.001c-11.333 -31.333 -26.5 -53.833 -45.5 -67.5s-40.5 -20.5 -64.5 -20.5c-38 0 -66.5 11.833 -85.5 35.5s-28.5 55.167 -28.5 94.5v346h85v-343c0 -20.667 5 -36.834 15 -48.501s23.667 -17.5 41 -17.5c12 0 22.667 3.83301 32 11.5
s17.166 16.667 23.499 27s11.166 21.333 14.499 33s5 21.5 5 29.5v308h84v-468h-70z" />
    <glyph glyph-name="v" unicode="v" horiz-adv-x="338" 
d="M209 0h-80l-121 468h83l58 -260l20 -106l21 106l56 260h83z" />
    <glyph glyph-name="w" unicode="w" horiz-adv-x="497" 
d="M385 0h-74l-43 194l-19 106l-20 -106l-44 -194h-74l-103 468h83l41 -258l17 -106l18 106l50 258h71l42 -258l18 -106l17 106l49 258h74z" />
    <glyph glyph-name="x" unicode="x" horiz-adv-x="333" 
d="M242 0l-74 165l-74 -165h-84l119 234l-119 234h85l74 -165l74 165h84l-118 -234l118 -234h-85z" />
    <glyph glyph-name="y" unicode="y" horiz-adv-x="338" 
d="M201 -31c-5.33301 -20.667 -11 -39.334 -17 -56.001s-13.667 -30.667 -23 -42s-21 -20.166 -35 -26.499s-31.667 -9.5 -53 -9.5h-31v67h24c20.667 0 34.5 3.5 41.5 10.5s12.5 18.167 16.5 33.5l8 40l-124 482h84l56 -259l20 -105l21 105l56 259h83z" />
    <glyph glyph-name="z" unicode="z" horiz-adv-x="316" 
d="M113 69h176v-69h-266v51l184 348h-175v69h263v-51z" />
    <glyph glyph-name="braceleft" unicode="{" horiz-adv-x="320" 
d="M234 -150c-24.667 0 -46.334 3.66797 -65.001 11.001s-34 17.5 -46 30.5s-21 27.833 -27 44.5s-9 34.667 -9 54c0 26 4.16699 50.167 12.5 72.5s17.333 43.333 27 63l27 54c8.33301 16.333 12.5 30.833 12.5 43.5c0 17.333 -4.83301 30 -14.5 38s-27.167 12 -52.5 12h-32
v56h32c25.333 0 42.833 4 52.5 12s14.5 20.667 14.5 38c0 13.333 -4.16699 28.166 -12.5 44.499l-27 53.5c-9.66699 19.333 -18.667 40.333 -27 63s-12.5 46.667 -12.5 72c0 19.333 3 37.5 9 54.5s15 32 27 45s27.333 23.167 46 30.5s40.334 11 65.001 11h35v-67h-36
c-23.333 0 -40.166 -6.5 -50.499 -19.5s-15.5 -29.5 -15.5 -49.5c0 -19.333 3.5 -38.833 10.5 -58.5s14.667 -38.834 23 -57.501l23 -53.5c7 -17 10.5 -32.5 10.5 -46.5c0 -26 -7 -47.5 -21 -64.5s-36 -28.833 -66 -35.5c58 -12.667 87 -45.667 87 -99
c0 -14 -3.5 -29.667 -10.5 -47s-14.667 -35.166 -23 -53.499s-16 -37.333 -23 -57s-10.5 -39.167 -10.5 -58.5c0 -20.667 5.16699 -37.5 15.5 -50.5s27.166 -19.5 50.499 -19.5h36v-66h-35z" />
    <glyph glyph-name="bar" unicode="|" horiz-adv-x="170" 
d="M54 -64v793h62v-793h-62z" />
    <glyph glyph-name="braceright" unicode="}" horiz-adv-x="320" 
d="M221 273c-25.333 0 -42.833 -4.00098 -52.5 -12.001s-14.5 -20.667 -14.5 -38c0 -12.667 4.16699 -27.167 12.5 -43.5l27.5 -54c10 -19.667 19.167 -40.667 27.5 -63s12.5 -46.5 12.5 -72.5c0 -19.333 -3 -37.333 -9 -54s-15.167 -31.5 -27.5 -44.5
s-27.666 -23.167 -45.999 -30.5s-40.166 -11 -65.499 -11h-34v66h35c23.333 0 40.333 6.5 51 19.5s16 29.833 16 50.5c0 19.333 -3.5 38.833 -10.5 58.5s-14.833 38.667 -23.5 57s-16.5 36.166 -23.5 53.499s-10.5 33 -10.5 47c0 53.333 29.333 86.333 88 99
c-30 6.66699 -52.167 18.5 -66.5 35.5s-21.5 38.5 -21.5 64.5c0 14 3.5 29.5 10.5 46.5s14.833 34.833 23.5 53.5s16.5 37.834 23.5 57.501s10.5 39.167 10.5 58.5c0 20 -5.33301 36.5 -16 49.5s-27.667 19.5 -51 19.5h-35v67h34c25.333 0 47.166 -3.66699 65.499 -11
s33.666 -17.5 45.999 -30.5s21.5 -28 27.5 -45s9 -35.167 9 -54.5c0 -25.333 -4.16699 -49.333 -12.5 -72s-17.5 -43.667 -27.5 -63l-27.5 -53.5c-8.33301 -16.333 -12.5 -31.166 -12.5 -44.499c0 -17.333 4.83301 -30 14.5 -38s27.167 -12 52.5 -12h32v-56h-32z" />
    <glyph glyph-name="asciitilde" unicode="~" horiz-adv-x="284" 
d="M272 350c0 -22.667 -5.50098 -40.6641 -16.501 -53.9971s-28.167 -20 -51.5 -20c-12 0 -23.833 2.83301 -35.5 8.5s-23 11.667 -34 18l-30.5 18c-9.33301 5.66699 -17 8.5 -23 8.5c-7.33301 0 -12.166 -1.83301 -14.499 -5.5s-3.5 -8.83398 -3.5 -15.501v-33h-38
c-4 6 -7.16699 12.167 -9.5 18.5s-3.5 13.166 -3.5 20.499c0 23.333 5.5 41.666 16.5 54.999s28.167 20 51.5 20c12 0 24 -2.83301 36 -8.5s23.5 -11.667 34.5 -18l30 -18c9 -5.66699 16.5 -8.5 22.5 -8.5c7.33301 0 12.333 1.83301 15 5.5s4 9.16699 4 16.5v33h37
c8.66699 -11.333 13 -25 13 -41z" />
    <glyph glyph-name="nonbreakingspace" unicode="&#xa0;" horiz-adv-x="164" 
 />
    <glyph glyph-name="exclamdown" unicode="&#xa1;" horiz-adv-x="191" 
d="M50 -198v290l33 190h26l33 -190v-290h-92zM54 357v111h83v-111h-83z" />
    <glyph glyph-name="cent" unicode="&#xa2;" horiz-adv-x="366" 
d="M159 666h72v-96c31.333 -7.33301 55.833 -23.333 73.5 -48s26.5 -56 26.5 -94v-26h-77v37c0 19.333 -5.33301 34.833 -16 46.5s-25.667 17.5 -45 17.5s-34.166 -5.83301 -44.499 -17.5s-15.5 -27.167 -15.5 -46.5v-210c0 -19.333 5.16699 -34.833 15.5 -46.5
s25.166 -17.5 44.499 -17.5s34.333 5.83301 45 17.5s16 27.167 16 46.5v36h77v-27c0 -38 -8.83301 -69.333 -26.5 -94s-42.167 -40.667 -73.5 -48v-96h-72v94c-34 7.33301 -61.167 23.5 -81.5 48.5s-30.5 56.833 -30.5 95.5v190c0 38.667 10.167 70.667 30.5 96
s47.5 41.333 81.5 48v94z" />
    <glyph glyph-name="sterling" unicode="&#xa3;" horiz-adv-x="475" 
d="M141 81c-10 8.66699 -18.834 14.5 -26.501 17.5s-14.167 4.5 -19.5 4.5c-9.33301 0 -16.666 -2.33301 -21.999 -7s-8 -10.667 -8 -18c0 -6.66699 2.5 -12.5 7.5 -17.5s12.5 -7.5 22.5 -7.5c9.33301 0 18 2.33301 26 7s14.667 11.667 20 21zM451.999 131
c0 -48.667 -9.50195 -85.168 -28.502 -109.501s-49.5 -36.5 -91.5 -36.5c-26 0 -51.5 4.66699 -76.5 14s-46.167 21.666 -63.5 36.999c-13.333 -16 -28.166 -28.5 -44.499 -37.5s-35.166 -13.5 -56.499 -13.5c-29.333 0 -52.333 8.33301 -69 25s-25 37.334 -25 62.001
c0 27.333 8.83301 50 26.5 68s43.834 27 78.501 27c12 0 24.167 -2.5 36.5 -7.5s23.166 -10.833 32.499 -17.5c7.33301 10.667 13.333 24.167 18 40.5s7 31.833 7 46.5c0 9.33301 -1.66699 21 -5 35s-8 25.667 -14 35h-125v76h91c-9.33301 19.333 -17.166 40 -23.499 62
s-9.5 45 -9.5 69c0 22.667 3.33301 44.5 10 65.5s16.834 39.667 30.501 56s31.167 29.333 52.5 39s46.333 14.5 75 14.5c26 0 48.833 -4.33301 68.5 -13s36.167 -20.167 49.5 -34.5s23.333 -31.166 30 -50.499s10 -39.666 10 -60.999v-48h-80v35
c0 27.333 -6.33301 49.5 -19 66.5s-32.667 25.5 -60 25.5c-25.333 0 -44.833 -7.66699 -58.5 -23s-20.5 -38.666 -20.5 -69.999c0 -22.667 3.66699 -45.334 11 -68.001s16.666 -44.334 27.999 -65.001h133v-76h-101c3.33301 -11.333 5.83301 -22.833 7.5 -34.5
s2.5 -22.167 2.5 -31.5c0 -21.333 -3.33301 -43.5 -10 -66.5s-17.334 -45.5 -32.001 -67.5c12 -9.33301 25.833 -17.333 41.5 -24s29.167 -10 40.5 -10c19.333 0 33 5.33301 41 16s12 24.667 12 42v78h80v-70z" />
    <glyph glyph-name="currency" unicode="&#xa4;" horiz-adv-x="436" 
d="M343 373v-80h-210v-132c0 -27.333 7.66699 -49.333 23 -66s39 -25 71 -25c31.333 0 54.833 8.33301 70.5 25s23.5 40 23.5 70v47h84v-51c0 -24.667 -3.5 -47.667 -10.5 -69s-17.833 -40 -32.5 -56s-33.5 -28.5 -56.5 -37.5s-50.167 -13.5 -81.5 -13.5s-58.333 5 -81 15
s-41.167 23.5 -55.5 40.5s-25 36.5 -32 58.5s-10.5 45.333 -10.5 70v328c0 24.667 3.5 48 10.5 70s17.667 41.5 32 58.5s32.833 30.5 55.5 40.5s49.667 15 81 15s58.5 -4.5 81.5 -13.5s41.833 -21.5 56.5 -37.5s25.5 -34.667 32.5 -56s10.5 -44.333 10.5 -69v-51h-84v47
c0 30 -7.83301 53.333 -23.5 70s-39.167 25 -70.5 25c-32 0 -55.667 -8.5 -71 -25.5s-23 -38.833 -23 -65.5v-132h210z" />
    <glyph glyph-name="yen" unicode="&#xa5;" horiz-adv-x="433" 
d="M259 212h133v-80h-133v-132h-89v132h-135v80h135v67h-135v78h107l-122 309h98l99 -284l99 284h97l-124 -309h103v-78h-133v-67z" />
    <glyph glyph-name="brokenbar" unicode="&#xa6;" 
d="M25 800h450v-1000h-450v1000z" />
    <glyph glyph-name="section" unicode="&#xa7;" horiz-adv-x="433" 
d="M322 222c0 11.333 -2.16895 22.1709 -6.50195 32.5039s-12.333 21.166 -24 32.499s-27.167 23.333 -46.5 36s-44 26.667 -74 42c-13.333 -6 -24.166 -15.667 -32.499 -29s-12.5 -27 -12.5 -41c0 -10.667 1.5 -20.834 4.5 -30.501s9.66699 -19.667 20 -30
s25.5 -21.833 45.5 -34.5s47 -28 81 -46c12.667 5.33301 23.334 14.166 32.001 26.499s13 26.166 13 41.499zM402.998 241.005c0 -57.333 -23.3311 -100.667 -69.998 -130c19.333 -17.333 34.666 -35.333 45.999 -54s17 -41.334 17 -68.001
c0 -20 -3.83301 -39.167 -11.5 -57.5s-19 -34.333 -34 -48s-33.5 -24.667 -55.5 -33s-47.333 -12.5 -76 -12.5c-59.333 0 -105.166 14 -137.499 42s-48.5 66.667 -48.5 116v28h86v-33c0 -23.333 8.5 -41.666 25.5 -54.999s39.833 -20 68.5 -20
c32.667 0 56.5 5.66699 71.5 17s22.5 28 22.5 50c0 18 -6.66699 34 -20 48s-29.833 27.5 -49.5 40.5s-41 26 -64 39s-44.333 27.167 -64 42.5s-36.167 32.833 -49.5 52.5s-20 42.167 -20 67.5c0 27.333 7 51.833 21 73.5s31.333 40.167 52 55.5
c-18.667 16 -33.834 34 -45.501 54s-17.5 43 -17.5 69c0 20 3.33301 39.5 10 58.5s17 35.667 31 50s31.5 25.833 52.5 34.5s45.833 13 74.5 13c31.333 0 58 -4.33301 80 -13s39.833 -20.5 53.5 -35.5s23.667 -32.333 30 -52s9.5 -40.167 9.5 -61.5v-23h-85v30
c0 8.66699 -1.16699 17.5 -3.5 26.5s-6.83301 17 -13.5 24s-15.834 12.833 -27.501 17.5s-26.5 7 -44.5 7c-29.333 0 -49.333 -6.83301 -60 -20.5s-16 -30.167 -16 -49.5c0 -17.333 6.5 -33 19.5 -47s29.167 -27.5 48.5 -40.5s40.333 -26 63 -39s43.667 -27.333 63 -43
s35.5 -33.167 48.5 -52.5s19.5 -42 19.5 -68z" />
    <glyph glyph-name="dieresis" unicode="&#xa8;" horiz-adv-x="231" 
d="M13 566v90h75v-90h-75zM143 566v90h75v-90h-75z" />
    <glyph glyph-name="copyright" unicode="&#xa9;" horiz-adv-x="680" 
d="M448 268c0 -27.333 -9.16699 -49.5 -27.5 -66.5s-43.5 -25.5 -75.5 -25.5s-58 8.83301 -78 26.5s-30 40.167 -30 67.5v112c0 27.333 10 49.833 30 67.5s46 26.5 78 26.5s57.167 -8.33301 75.5 -25s27.5 -39 27.5 -67v-19h-49v18c0 14 -4.5 25.833 -13.5 35.5
s-22.167 14.5 -39.5 14.5c-18 0 -31.333 -5 -40 -15s-13 -22.333 -13 -37v-110c0 -14 4.33301 -26.167 13 -36.5s22 -15.5 40 -15.5c17.333 0 30.5 4.83301 39.5 14.5s13.5 21.5 13.5 35.5v19h49v-20zM608 326c0 38 -6.5 73.667 -19.5 107s-31.333 62.333 -55 87
s-51.834 44.167 -84.501 58.5s-69 21.5 -109 21.5c-39.333 0 -75.5 -7.16699 -108.5 -21.5s-61.333 -33.833 -85 -58.5s-42 -53.667 -55 -87s-19.5 -69 -19.5 -107s6.5 -73.5 19.5 -106.5s31.333 -62 55 -87s52 -44.667 85 -59s69.167 -21.5 108.5 -21.5
c40 0 76.333 7.16699 109 21.5s60.834 34 84.501 59s42 54 55 87s19.5 68.5 19.5 106.5zM658 326c0 -44 -8 -85.333 -24 -124s-38.167 -72.5 -66.5 -101.5s-62 -51.833 -101 -68.5s-81.167 -25 -126.5 -25s-87.5 8.33301 -126.5 25s-72.667 39.5 -101 68.5
s-50.5 62.833 -66.5 101.5s-24 80 -24 124s8 85.5 24 124.5s38.167 73 66.5 102s62 51.833 101 68.5s81.167 25 126.5 25s87.5 -8.33301 126.5 -25s72.667 -39.5 101 -68.5s50.5 -63 66.5 -102s24 -80.5 24 -124.5z" />
    <glyph glyph-name="ordfeminine" unicode="&#xaa;" horiz-adv-x="314" 
d="M202 487c-36.667 -4.66699 -63.833 -12.5 -81.5 -23.5s-26.5 -26.833 -26.5 -47.5v-7c0 -12 3.5 -22.167 10.5 -30.5s17.833 -12.5 32.5 -12.5c16 0 30.833 5 44.5 15s20.5 23 20.5 39v67zM267.001 312c-13.333 0 -24.832 3.33008 -34.499 9.99707s-14.5 18.667 -14.5 36
c-11.333 -14 -25 -25.167 -41 -33.5s-33.667 -12.5 -53 -12.5c-28.667 0 -51.334 8.33301 -68.001 25s-25 39.334 -25 68.001v7c0 21.333 4.83301 38.833 14.5 52.5s22.5 25 38.5 34s34.167 15.833 54.5 20.5s41.5 8.33398 63.5 11.001v49c0 30 -15.667 45 -47 45
c-19.333 0 -31.833 -4 -37.5 -12s-8.5 -20.333 -8.5 -37v-15h-64v18c0 28.667 8.83301 52.834 26.5 72.501s45.5 29.5 83.5 29.5c20.667 0 38 -2.83301 52 -8.5s25.333 -13.667 34 -24s15 -22.5 19 -36.5s6 -29.333 6 -46v-183c0 -6.66699 1.5 -11.5 4.5 -14.5
s10.833 -4.5 23.5 -4.5v-51h-27z" />
    <glyph glyph-name="guillemotleft" unicode="&#xab;" horiz-adv-x="411" 
d="M159 0c-8 36.667 -24.167 69.667 -48.5 99s-53.5 49.333 -87.5 60v69c34 10.667 63.167 30.667 87.5 60s40.5 62.333 48.5 99h49c0 -19.333 -2.5 -38.5 -7.5 -57.5s-12 -37 -21 -54s-20 -32.5 -33 -46.5s-27.5 -26 -43.5 -36c16 -10 30.5 -22 43.5 -36s24 -29.333 33 -46
s16 -34.5 21 -53.5s7.5 -38.167 7.5 -57.5h-49zM330 0c-8 36.667 -24.167 69.667 -48.5 99s-53.5 49.333 -87.5 60v69c34 10.667 63.167 30.667 87.5 60s40.5 62.333 48.5 99h49c0 -19.333 -2.5 -38.5 -7.5 -57.5s-12 -37 -21 -54s-20 -32.5 -33 -46.5s-27.5 -26 -43.5 -36
c16 -10 30.5 -22 43.5 -36s24 -29.333 33 -46s16 -34.5 21 -53.5s7.5 -38.167 7.5 -57.5h-49z" />
    <glyph glyph-name="logicalnot" unicode="&#xac;" horiz-adv-x="380" 
d="M278 196l-89 89l-88 -89l-52 52l88 89l-88 89l53 52l89 -89l88 89l52 -52l-89 -88l89 -89z" />
    <glyph glyph-name="registered" unicode="&#xae;" horiz-adv-x="680" 
d="M392 392c0 9.33301 -2.5 17.5 -7.5 24.5s-14.167 10.5 -27.5 10.5h-56v-84h51c26.667 0 40 13.333 40 40v9zM450 183c-21.333 0 -36 3.3291 -44 9.99609s-12 19 -12 37v33c0 12.667 -3 22.834 -9 30.501s-15.667 11.5 -29 11.5h-55v-119h-55v284h116
c32 0 54.167 -7.16699 66.5 -21.5s18.5 -33.5 18.5 -57.5v-5c0 -17.333 -3.5 -31.166 -10.5 -41.499s-19.5 -17.166 -37.5 -20.499c17.333 -1.33301 30 -8.16602 38 -20.499s12 -25.5 12 -39.5v-29c0 -8.66699 5.33301 -13 16 -13v-39h-15zM608 325.996
c0 38 -6.5 73.667 -19.5 107s-31.333 62.333 -55 87s-51.834 44.167 -84.501 58.5s-69 21.5 -109 21.5c-39.333 0 -75.5 -7.16699 -108.5 -21.5s-61.333 -33.833 -85 -58.5s-42 -53.667 -55 -87s-19.5 -69 -19.5 -107s6.5 -73.5 19.5 -106.5s31.333 -62 55 -87
s52 -44.667 85 -59s69.167 -21.5 108.5 -21.5c40 0 76.333 7.16699 109 21.5s60.834 34 84.501 59s42 54 55 87s19.5 68.5 19.5 106.5zM658 325.996c0 -44 -8 -85.333 -24 -124s-38.167 -72.5 -66.5 -101.5s-62 -51.833 -101 -68.5s-81.167 -25 -126.5 -25
s-87.5 8.33301 -126.5 25s-72.667 39.5 -101 68.5s-50.5 62.833 -66.5 101.5s-24 80 -24 124s8 85.5 24 124.5s38.167 73 66.5 102s62 51.833 101 68.5s81.167 25 126.5 25s87.5 -8.33301 126.5 -25s72.667 -39.5 101 -68.5s50.5 -63 66.5 -102s24 -80.5 24 -124.5z" />
    <glyph glyph-name="macron" unicode="&#xaf;" horiz-adv-x="251" 
d="M11 572v60h229v-60h-229z" />
    <glyph glyph-name="macron" unicode="&#x2c9;" horiz-adv-x="251" 
d="M11 572v60h229v-60h-229z" />
    <glyph glyph-name="degree" unicode="&#xb0;" horiz-adv-x="283" 
d="M202 561c0 19.333 -5.16699 35.166 -15.5 47.499s-25.166 18.5 -44.499 18.5s-34.166 -6.16699 -44.499 -18.5s-15.5 -28.166 -15.5 -47.499s5.16699 -35.166 15.5 -47.499s25.166 -18.5 44.499 -18.5s34.166 6.16699 44.499 18.5s15.5 28.166 15.5 47.499zM264 561
c0 -16 -3 -31.167 -9 -45.5s-14.333 -27 -25 -38s-23.5 -19.667 -38.5 -26s-31.5 -9.5 -49.5 -9.5s-34.667 3.16699 -50 9.5s-28.333 15 -39 26s-19 23.667 -25 38s-9 29.5 -9 45.5s3 31.167 9 45.5s14.333 27 25 38s23.667 19.833 39 26.5s32 10 50 10
s34.5 -3.33301 49.5 -10s27.833 -15.5 38.5 -26.5s19 -23.667 25 -38s9 -29.5 9 -45.5z" />
    <glyph glyph-name="plusminus" unicode="&#xb1;" horiz-adv-x="507" 
d="M432 431h-357v-382h357v382zM24 0v480h459v-480h-459z" />
    <glyph glyph-name="twosuperior" unicode="&#xb2;" 
d="M25 800h450v-1000h-450v1000z" />
    <glyph glyph-name="threesuperior" unicode="&#xb3;" 
d="M25 800h450v-1000h-450v1000z" />
    <glyph glyph-name="acute" unicode="&#xb4;" horiz-adv-x="178" 
d="M97 538h-55l42 135h89z" />
    <glyph glyph-name="mu" unicode="&#xb5;" 
d="M25 800h450v-1000h-450v1000z" />
    <glyph glyph-name="mu" unicode="&#x3bc;" 
d="M25 800h450v-1000h-450v1000z" />
    <glyph glyph-name="paragraph" unicode="&#xb6;" horiz-adv-x="548" 
d="M290 591l-19 0.000976562c-23.333 0 -42 -7.83301 -56 -23.5s-21 -37.834 -21 -66.501v-144c0 -28 7 -49 21 -63s32.667 -21 56 -21h19v318zM426 -155.999v747h-67v-747h-69v347h-39c-30 0 -57.833 5.5 -83.5 16.5s-48 26.5 -67 46.5s-33.833 44 -44.5 72
s-16 59.333 -16 94v16c0 34.667 5.33301 66.167 16 94.5s25.5 52.5 44.5 72.5s41.333 35.5 67 46.5s53.5 16.5 83.5 16.5h243v-822h-68z" />
    <glyph glyph-name="periodcentered" unicode="&#xb7;" horiz-adv-x="159" 
d="M39 276v113h82v-113h-82z" />
    <glyph glyph-name="periodcentered" unicode="&#x2219;" horiz-adv-x="159" 
d="M39 276v113h82v-113h-82z" />
    <glyph glyph-name="cedilla" unicode="&#xb8;" horiz-adv-x="191" 
d="M192 -148c0 -23.333 -8.16406 -43.001 -24.4971 -59.001s-37.5 -24 -63.5 -24c-8.66699 0 -16.334 1 -23.001 3s-11.334 4 -14.001 6v32h21c26.667 0 40 11.333 40 34v24c0 24.667 -13.333 37 -40 37c-16.667 0 -32.334 -8.66699 -47.001 -26l-31 22l85 119l32 -23
l-49 -66c4 2.66699 9.5 4.33398 16.5 5.00098s13.167 1 18.5 1c26 0 45.667 -8 59 -24s20 -36.333 20 -61z" />
    <glyph glyph-name="onesuperior" unicode="&#xb9;" 
d="M25 800h450v-1000h-450v1000z" />
    <glyph glyph-name="ordmasculine" unicode="&#xba;" horiz-adv-x="293" 
d="M199 575c0 15.333 -4.83301 28 -14.5 38s-22.167 15 -37.5 15c-16 0 -28.833 -5 -38.5 -15s-14.5 -22.667 -14.5 -38v-158c0 -15.333 4.83301 -27.833 14.5 -37.5s22.5 -14.5 38.5 -14.5c15.333 0 27.833 4.83301 37.5 14.5s14.5 22.167 14.5 37.5v158zM266 431
c0 -37.333 -11.333 -66.5 -34 -87.5s-51 -31.5 -85 -31.5s-62.333 10.5 -85 31.5s-34 50.167 -34 87.5v130c0 37.333 11.333 66.5 34 87.5s51 31.5 85 31.5s62.333 -10.5 85 -31.5s34 -50.167 34 -87.5v-130z" />
    <glyph glyph-name="guillemotright" unicode="&#xbb;" horiz-adv-x="411" 
d="M217 159c-34 -10.667 -63.166 -30.667 -87.499 -60s-40.5 -62.333 -48.5 -99h-48c0 39.333 9.16699 76.5 27.5 111.5s44.166 62.167 77.499 81.5c-16.667 10 -31.5 22 -44.5 36s-24 29.5 -33 46.5s-15.833 35 -20.5 54s-7 38.167 -7 57.5h48
c8 -36.667 24.167 -69.667 48.5 -99s53.5 -49.333 87.5 -60v-69zM388.001 159c-34 -10.667 -63.166 -30.667 -87.499 -60s-40.5 -62.333 -48.5 -99h-48c0 39.333 9.16699 76.5 27.5 111.5s44.166 62.167 77.499 81.5c-16.667 10 -31.5 22 -44.5 36s-24 29.5 -33 46.5
s-15.833 35 -20.5 54s-7 38.167 -7 57.5h48c8 -36.667 24.167 -69.667 48.5 -99s53.5 -49.333 87.5 -60v-69z" />
    <glyph glyph-name="onequarter" unicode="&#xbc;" 
d="M25 800h450v-1000h-450v1000z" />
    <glyph glyph-name="onehalf" unicode="&#xbd;" 
d="M25 800h450v-1000h-450v1000z" />
    <glyph glyph-name="threequarters" unicode="&#xbe;" 
d="M25 800h450v-1000h-450v1000z" />
    <glyph glyph-name="questiondown" unicode="&#xbf;" horiz-adv-x="330" 
d="M-15 -47c0 38 8.49609 72.835 25.4961 104.502s42.167 63.5 75.5 95.5c10.667 10 19.334 19.333 26.001 28s12 17.5 16 26.5s6.66699 18.333 8 28s2 20.5 2 32.5h67c0 -20 -1.66699 -37.333 -5 -52s-8.5 -29 -15.5 -43s-16.333 -29 -28 -45l-43.5 -58
c-13.333 -18 -23.166 -37 -29.499 -57s-9.5 -39.333 -9.5 -58c0 -32.667 6.33301 -55.834 19 -69.501s32 -20.5 58 -20.5c26.667 0 46.334 8.33301 59.001 25s19 40 19 70v62h80v-71c0 -23.333 -3 -44.833 -9 -64.5s-15.333 -36.834 -28 -51.501s-28.667 -26.167 -48 -34.5
s-42.666 -12.5 -69.999 -12.5c-30.667 0 -56.667 4.5 -78 13.5s-38.833 21 -52.5 36s-23.5 32.5 -29.5 52.5s-9 41 -9 63zM214.996 468.002v-111h-82v111h82z" />
    <glyph glyph-name="Agrave" unicode="&#xc0;" horiz-adv-x="417" 
d="M177 704l-77 135h90l41 -135h-54zM206 517l-55 -273h110zM313 0l-35 163h-144l-35 -163h-92l151 666h100l151 -666h-96z" />
    <glyph glyph-name="Aacute" unicode="&#xc1;" horiz-adv-x="417" 
d="M232 704h-55l42 135h89zM206 517l-55 -273h110zM313 0l-35 163h-144l-35 -163h-92l151 666h100l151 -666h-96z" />
    <glyph glyph-name="Acircumflex" unicode="&#xc2;" horiz-adv-x="417" 
d="M332 714c-6.66699 -2 -14 -3.66699 -22 -5s-15.333 -2 -22 -2c-20.667 0 -38.334 7 -53.001 21s-25 33 -31 57c-5.33301 -24 -15.5 -43 -30.5 -57s-33.167 -21 -54.5 -21c-6.66699 0 -13 0.666992 -19 2s-12.667 3 -20 5v25c43.333 0 73.333 30.667 90 92h73
c16.667 -61.333 46.334 -92 89.001 -92v-25zM206 517l-55 -273h110zM313 0l-35 163h-144l-35 -163h-92l151 666h100l151 -666h-96z" />
    <glyph glyph-name="Atilde" unicode="&#xc3;" horiz-adv-x="417" 
d="M330 793c0 -22.667 -5.50098 -40.666 -16.501 -53.999s-28.167 -20 -51.5 -20c-12 0 -23.833 2.83301 -35.5 8.5s-23 11.667 -34 18l-30.5 18c-9.33301 5.66699 -17 8.5 -23 8.5c-7.33301 0 -12.166 -1.83301 -14.499 -5.5s-3.5 -8.83398 -3.5 -15.501v-33h-38
c-4 6 -7.16699 12.167 -9.5 18.5s-3.5 13.5 -3.5 21.5c0 22.667 5.5 40.667 16.5 54s28.167 20 51.5 20c12 0 24 -2.83301 36 -8.5s23.5 -11.667 34.5 -18l30 -18c9 -5.66699 16.5 -8.5 22.5 -8.5c7.33301 0 12.333 1.83301 15 5.5s4 9.16699 4 16.5v33h37
c8.66699 -11.333 13 -25 13 -41zM205.999 517.001l-55 -273h110zM312.999 0.000976562l-35 163h-144l-35 -163h-92l151 666h100l151 -666h-96z" />
    <glyph glyph-name="Adieresis" unicode="&#xc4;" horiz-adv-x="417" 
d="M97 732v90h75v-90h-75zM227 732v90h75v-90h-75zM206 517l-55 -273h110zM313 0l-35 163h-144l-35 -163h-92l151 666h100l151 -666h-96z" />
    <glyph glyph-name="Aring" unicode="&#xc5;" horiz-adv-x="417" 
d="M206 517l-55 -273h110zM248 740c0 13.333 -3.5 24.166 -10.5 32.499s-16.833 12.5 -29.5 12.5s-22.5 -4.16699 -29.5 -12.5s-10.5 -19.166 -10.5 -32.499s3.5 -24.166 10.5 -32.499s16.833 -12.5 29.5 -12.5s22.5 4.16699 29.5 12.5s10.5 19.166 10.5 32.499zM175 666
c-14.667 6 -26.5 15.833 -35.5 29.5s-13.5 28.5 -13.5 44.5c0 21.333 7.66699 40.166 23 56.499s35 24.5 59 24.5s43.5 -8.16699 58.5 -24.5s22.5 -35.166 22.5 -56.499c0 -16 -4.33301 -30.833 -13 -44.5s-20.667 -23.5 -36 -29.5h18l151 -666h-96l-35 163h-144l-35 -163
h-92l151 666h17z" />
    <glyph glyph-name="AE" unicode="&#xc6;" horiz-adv-x="633" 
d="M295 544l-101 -299h101v299zM295 0v163h-132l-61 -163h-97l253 666h347v-86h-216v-190h156v-82h-156v-222h216v-86h-310z" />
    <glyph glyph-name="Ccedilla" unicode="&#xc7;" horiz-adv-x="444" 
d="M193 -12c-24.667 4 -46.3291 11.6689 -64.9961 23.002s-34.167 25.166 -46.5 41.499s-21.5 34.5 -27.5 54.5s-9 41 -9 63v326c0 24.667 3.83301 48 11.5 70s19.167 41.5 34.5 58.5s34.666 30.5 57.999 40.5s50.666 15 81.999 15s58.5 -4.5 81.5 -13.5
s41.833 -21.5 56.5 -37.5s25.5 -34.667 32.5 -56s10.5 -44 10.5 -68v-72h-85v70c0 28 -7.66699 50.5 -23 67.5s-38.666 25.5 -69.999 25.5c-32 0 -55.667 -8.5 -71 -25.5s-23 -38.167 -23 -63.5v-348c0 -25.333 7.66699 -46.5 23 -63.5s39 -25.5 71 -25.5
c31.333 0 54.666 8.33301 69.999 25s23 39.334 23 68.001v70h85v-72c0 -24 -3.33301 -46.5 -10 -67.5s-17.167 -39.333 -31.5 -55s-32.5 -28.334 -54.5 -38.001s-48 -14.834 -78 -15.501l-40 -55c4.66699 3.33301 10.334 5.33301 17.001 6s13 1 19 1c26 0 45.667 -8 59 -24
s20 -36.333 20 -61c0 -23.333 -8.16699 -43 -24.5 -59s-37.5 -24 -63.5 -24c-8.66699 0 -16.334 1 -23.001 3s-11.334 4 -14.001 6v32h20c12.667 0 22.667 2.83301 30 8.5s11 14.167 11 25.5v24c0 24.667 -13.667 37 -41 37c-16.667 0 -32.334 -8.66699 -47.001 -26l-30 22z
" />
    <glyph glyph-name="Egrave" unicode="&#xc8;" horiz-adv-x="393" 
d="M188 704l-77 135h90l41 -135h-54zM54 0v666h310v-86h-216v-190h156v-82h-156v-222h216v-86h-310z" />
    <glyph glyph-name="Eacute" unicode="&#xc9;" horiz-adv-x="393" 
d="M224 704h-55l42 135h89zM54 0v666h310v-86h-216v-190h156v-82h-156v-222h216v-86h-310z" />
    <glyph glyph-name="Ecircumflex" unicode="&#xca;" horiz-adv-x="393" 
d="M330 714c-6.66699 -2 -14 -3.66699 -22 -5s-15.333 -2 -22 -2c-20.667 0 -38.334 7 -53.001 21s-25 33 -31 57c-5.33301 -24 -15.5 -43 -30.5 -57s-33.167 -21 -54.5 -21c-6.66699 0 -13 0.666992 -19 2s-12.667 3 -20 5v25c43.333 0 73.333 30.667 90 92h73
c16.667 -61.333 46.334 -92 89.001 -92v-25zM54 0v666h310v-86h-216v-190h156v-82h-156v-222h216v-86h-310z" />
    <glyph glyph-name="Edieresis" unicode="&#xcb;" horiz-adv-x="393" 
d="M101 732v90h75v-90h-75zM231 732v90h75v-90h-75zM54 0v666h310v-86h-216v-190h156v-82h-156v-222h216v-86h-310z" />
    <glyph glyph-name="Igrave" unicode="&#xcc;" horiz-adv-x="202" 
d="M73 704l-77 135h90l41 -135h-54zM54 0v666h95v-666h-95z" />
    <glyph glyph-name="Iacute" unicode="&#xcd;" horiz-adv-x="202" 
d="M123 704h-55l42 135h89zM54 0v666h95v-666h-95z" />
    <glyph glyph-name="Icircumflex" unicode="&#xce;" horiz-adv-x="202" 
d="M227 714c-6.66699 -2 -14 -3.66699 -22 -5s-15.333 -2 -22 -2c-20.667 0 -38.334 7 -53.001 21s-25 33 -31 57c-5.33301 -24 -15.5 -43 -30.5 -57s-33.167 -21 -54.5 -21c-6.66699 0 -13 0.666992 -19 2s-12.667 3 -20 5v25c43.333 0 73.333 30.667 90 92h73
c16.667 -61.333 46.334 -92 89.001 -92v-25zM54 0v666h95v-666h-95z" />
    <glyph glyph-name="Idieresis" unicode="&#xcf;" horiz-adv-x="202" 
d="M-3 732v90h75v-90h-75zM127 732v90h75v-90h-75zM54 0v666h95v-666h-95z" />
    <glyph glyph-name="Eth" unicode="&#xd0;" horiz-adv-x="508" 
d="M279 372v-79h-88v-207h87c32 0 55.167 8.5 69.5 25.5s21.5 41.167 21.5 72.5v297c0 32 -7.16699 56.333 -21.5 73s-37.5 25 -69.5 25h-87v-207h88zM6 293v79h91v294h187c30.667 0 57.334 -4.5 80.001 -13.5s41.334 -21.5 56.001 -37.5s25.5 -35 32.5 -57
s10.5 -46 10.5 -72v-306c0 -26 -3.5 -50 -10.5 -72s-17.833 -41 -32.5 -57s-33.334 -28.5 -56.001 -37.5s-49.334 -13.5 -80.001 -13.5h-187v293h-91z" />
    <glyph glyph-name="Ntilde" unicode="&#xd1;" horiz-adv-x="484" 
d="M365 793c0 -22.667 -5.50098 -40.666 -16.501 -53.999s-28.167 -20 -51.5 -20c-12 0 -23.833 2.83301 -35.5 8.5s-23 11.667 -34 18l-30.5 18c-9.33301 5.66699 -17 8.5 -23 8.5c-7.33301 0 -12.166 -1.83301 -14.499 -5.5s-3.5 -8.83398 -3.5 -15.501v-33h-38
c-4 6 -7.16699 12.167 -9.5 18.5s-3.5 13.5 -3.5 21.5c0 22.667 5.5 40.667 16.5 54s28.167 20 51.5 20c12 0 24 -2.83301 36 -8.5s23.5 -11.667 34.5 -18l30 -18c9 -5.66699 16.5 -8.5 22.5 -8.5c7.33301 0 12.333 1.83301 15 5.5s4 9.16699 4 16.5v33h37
c8.66699 -11.333 13 -25 13 -41zM363.999 0.000976562l-165 324l-56 117v-441h-90v666h77l158 -330l53 -117v447h90v-666h-67z" />
    <glyph glyph-name="Ograve" unicode="&#xd2;" horiz-adv-x="462" 
d="M202 704l-77 135h90l41 -135h-54zM323 498c0 28.667 -7.5 52.167 -22.5 70.5s-38.167 27.5 -69.5 27.5s-54.333 -9.16699 -69 -27.5s-22 -41.833 -22 -70.5v-330c0 -28.667 7.33301 -52.167 22 -70.5s37.667 -27.5 69 -27.5s54.5 9.16699 69.5 27.5
s22.5 41.833 22.5 70.5v330zM417 176c0 -27.333 -3.83301 -52.666 -11.5 -75.999s-19.167 -43.5 -34.5 -60.5s-34.666 -30.333 -57.999 -40s-50.666 -14.5 -81.999 -14.5s-58.666 4.83301 -81.999 14.5s-42.666 23 -57.999 40s-26.833 37.167 -34.5 60.5
s-11.5 48.666 -11.5 75.999v314c0 27.333 3.83301 52.5 11.5 75.5s19.167 43 34.5 60s34.666 30.333 57.999 40s50.666 14.5 81.999 14.5s58.666 -4.83301 81.999 -14.5s42.666 -23 57.999 -40s26.833 -37 34.5 -60s11.5 -48.167 11.5 -75.5v-314z" />
    <glyph glyph-name="Oacute" unicode="&#xd3;" horiz-adv-x="462" 
d="M256 704h-55l42 135h89zM323 498c0 28.667 -7.5 52.167 -22.5 70.5s-38.167 27.5 -69.5 27.5s-54.333 -9.16699 -69 -27.5s-22 -41.833 -22 -70.5v-330c0 -28.667 7.33301 -52.167 22 -70.5s37.667 -27.5 69 -27.5s54.5 9.16699 69.5 27.5s22.5 41.833 22.5 70.5v330z
M417 176c0 -27.333 -3.83301 -52.666 -11.5 -75.999s-19.167 -43.5 -34.5 -60.5s-34.666 -30.333 -57.999 -40s-50.666 -14.5 -81.999 -14.5s-58.666 4.83301 -81.999 14.5s-42.666 23 -57.999 40s-26.833 37.167 -34.5 60.5s-11.5 48.666 -11.5 75.999v314
c0 27.333 3.83301 52.5 11.5 75.5s19.167 43 34.5 60s34.666 30.333 57.999 40s50.666 14.5 81.999 14.5s58.666 -4.83301 81.999 -14.5s42.666 -23 57.999 -40s26.833 -37 34.5 -60s11.5 -48.167 11.5 -75.5v-314z" />
    <glyph glyph-name="Ocircumflex" unicode="&#xd4;" horiz-adv-x="462" 
d="M358 714c-6.66699 -2 -14 -3.66699 -22 -5s-15.333 -2 -22 -2c-20.667 0 -38.334 7 -53.001 21s-25 33 -31 57c-5.33301 -24 -15.5 -43 -30.5 -57s-33.167 -21 -54.5 -21c-6.66699 0 -13 0.666992 -19 2s-12.667 3 -20 5v25c43.333 0 73.333 30.667 90 92h73
c16.667 -61.333 46.334 -92 89.001 -92v-25zM323 498c0 28.667 -7.5 52.167 -22.5 70.5s-38.167 27.5 -69.5 27.5s-54.333 -9.16699 -69 -27.5s-22 -41.833 -22 -70.5v-330c0 -28.667 7.33301 -52.167 22 -70.5s37.667 -27.5 69 -27.5s54.5 9.16699 69.5 27.5
s22.5 41.833 22.5 70.5v330zM417 176c0 -27.333 -3.83301 -52.666 -11.5 -75.999s-19.167 -43.5 -34.5 -60.5s-34.666 -30.333 -57.999 -40s-50.666 -14.5 -81.999 -14.5s-58.666 4.83301 -81.999 14.5s-42.666 23 -57.999 40s-26.833 37.167 -34.5 60.5
s-11.5 48.666 -11.5 75.999v314c0 27.333 3.83301 52.5 11.5 75.5s19.167 43 34.5 60s34.666 30.333 57.999 40s50.666 14.5 81.999 14.5s58.666 -4.83301 81.999 -14.5s42.666 -23 57.999 -40s26.833 -37 34.5 -60s11.5 -48.167 11.5 -75.5v-314z" />
    <glyph glyph-name="Otilde" unicode="&#xd5;" horiz-adv-x="462" 
d="M353 793c0 -22.667 -5.50098 -40.666 -16.501 -53.999s-28.167 -20 -51.5 -20c-12 0 -23.833 2.83301 -35.5 8.5s-23 11.667 -34 18l-30.5 18c-9.33301 5.66699 -17 8.5 -23 8.5c-7.33301 0 -12.166 -1.83301 -14.499 -5.5s-3.5 -8.83398 -3.5 -15.501v-33h-38
c-4 6 -7.16699 12.167 -9.5 18.5s-3.5 13.5 -3.5 21.5c0 22.667 5.5 40.667 16.5 54s28.167 20 51.5 20c12 0 24 -2.83301 36 -8.5s23.5 -11.667 34.5 -18l30 -18c9 -5.66699 16.5 -8.5 22.5 -8.5c7.33301 0 12.333 1.83301 15 5.5s4 9.16699 4 16.5v33h37
c8.66699 -11.333 13 -25 13 -41zM322.999 498.001c0 28.667 -7.5 52.167 -22.5 70.5s-38.167 27.5 -69.5 27.5s-54.333 -9.16699 -69 -27.5s-22 -41.833 -22 -70.5v-330c0 -28.667 7.33301 -52.167 22 -70.5s37.667 -27.5 69 -27.5s54.5 9.16699 69.5 27.5
s22.5 41.833 22.5 70.5v330zM416.999 176.001c0 -27.333 -3.83301 -52.666 -11.5 -75.999s-19.167 -43.5 -34.5 -60.5s-34.666 -30.333 -57.999 -40s-50.666 -14.5 -81.999 -14.5s-58.666 4.83301 -81.999 14.5s-42.666 23 -57.999 40s-26.833 37.167 -34.5 60.5
s-11.5 48.666 -11.5 75.999v314c0 27.333 3.83301 52.5 11.5 75.5s19.167 43 34.5 60s34.666 30.333 57.999 40s50.666 14.5 81.999 14.5s58.666 -4.83301 81.999 -14.5s42.666 -23 57.999 -40s26.833 -37 34.5 -60s11.5 -48.167 11.5 -75.5v-314z" />
    <glyph glyph-name="Odieresis" unicode="&#xd6;" horiz-adv-x="462" 
d="M130 732v90h75v-90h-75zM260 732v90h75v-90h-75zM323 498c0 28.667 -7.5 52.167 -22.5 70.5s-38.167 27.5 -69.5 27.5s-54.333 -9.16699 -69 -27.5s-22 -41.833 -22 -70.5v-330c0 -28.667 7.33301 -52.167 22 -70.5s37.667 -27.5 69 -27.5s54.5 9.16699 69.5 27.5
s22.5 41.833 22.5 70.5v330zM417 176c0 -27.333 -3.83301 -52.666 -11.5 -75.999s-19.167 -43.5 -34.5 -60.5s-34.666 -30.333 -57.999 -40s-50.666 -14.5 -81.999 -14.5s-58.666 4.83301 -81.999 14.5s-42.666 23 -57.999 40s-26.833 37.167 -34.5 60.5
s-11.5 48.666 -11.5 75.999v314c0 27.333 3.83301 52.5 11.5 75.5s19.167 43 34.5 60s34.666 30.333 57.999 40s50.666 14.5 81.999 14.5s58.666 -4.83301 81.999 -14.5s42.666 -23 57.999 -40s26.833 -37 34.5 -60s11.5 -48.167 11.5 -75.5v-314z" />
    <glyph glyph-name="multiply" unicode="&#xd7;" 
d="M25 800h450v-1000h-450v1000z" />
    <glyph glyph-name="Oslash" unicode="&#xd8;" horiz-adv-x="462" 
d="M323 451l-7 -14l-19 -38l-27.5 -54.5l-31.5 -62.5l-86 -169c7.33301 -13.333 17.5 -23.833 30.5 -31.5s29.167 -11.5 48.5 -11.5c31.333 0 54.5 9.16699 69.5 27.5s22.5 41.833 22.5 70.5v283zM311 553c-7.33301 13.333 -17.668 23.833 -31.001 31.5
s-29.666 11.5 -48.999 11.5c-31.333 0 -54.333 -9.16699 -69 -27.5s-22 -41.833 -22 -70.5v-282zM429.998 663c-2.66699 -6.66699 -6 -13.668 -10 -21.001l-11.5 -22.5l-14.5 -27.5c15.333 -28 23 -62 23 -102v-314c0 -27.333 -3.83301 -52.666 -11.5 -75.999
s-19.167 -43.5 -34.5 -60.5s-34.666 -30.333 -57.999 -40s-50.666 -14.5 -81.999 -14.5c-26.667 0 -50.167 3.5 -70.5 10.5s-38.166 16.5 -53.499 28.5c0 0.666992 -1.33301 -1.66602 -4 -6.99902l-9 -18c-4 -7.33301 -8.33301 -16 -13 -26l-49 30l18 35l12.5 25
c3.66699 7.33301 5.5 10.666 5.5 9.99902c-8 15.333 -13.833 31.5 -17.5 48.5s-5.5 35.167 -5.5 54.5v314c0 27.333 3.83301 52.5 11.5 75.5s19.167 43 34.5 60s34.666 30.333 57.999 40s50.666 14.5 81.999 14.5c26.667 0 50.167 -3.5 70.5 -10.5
s38.166 -16.833 53.499 -29.5l27 53z" />
    <glyph glyph-name="Ugrave" unicode="&#xd9;" horiz-adv-x="475" 
d="M219 704l-77 135h90l41 -135h-54zM423 159c0 -27.333 -4.49707 -51.833 -13.4971 -73.5s-21.833 -40 -38.5 -55s-36.334 -26.333 -59.001 -34s-47.667 -11.5 -75 -11.5c-26.667 0 -51.334 3.83301 -74.001 11.5s-42.334 19 -59.001 34s-29.5 33.333 -38.5 55
s-13.5 46.167 -13.5 73.5v507h95v-507c0 -60.667 30.333 -91 91 -91s91 30.333 91 91v507h94v-507z" />
    <glyph glyph-name="Uacute" unicode="&#xda;" horiz-adv-x="475" 
d="M263 704h-55l42 135h89zM423 159c0 -27.333 -4.49707 -51.833 -13.4971 -73.5s-21.833 -40 -38.5 -55s-36.334 -26.333 -59.001 -34s-47.667 -11.5 -75 -11.5c-26.667 0 -51.334 3.83301 -74.001 11.5s-42.334 19 -59.001 34s-29.5 33.333 -38.5 55
s-13.5 46.167 -13.5 73.5v507h95v-507c0 -60.667 30.333 -91 91 -91s91 30.333 91 91v507h94v-507z" />
    <glyph glyph-name="Ucircumflex" unicode="&#xdb;" horiz-adv-x="475" 
d="M370 714c-6.66699 -2 -14 -3.66699 -22 -5s-15.333 -2 -22 -2c-20.667 0 -38.334 7 -53.001 21s-25 33 -31 57c-5.33301 -24 -15.5 -43 -30.5 -57s-33.167 -21 -54.5 -21c-6.66699 0 -13 0.666992 -19 2s-12.667 3 -20 5v25c43.333 0 73.333 30.667 90 92h73
c16.667 -61.333 46.334 -92 89.001 -92v-25zM423 159c0 -27.333 -4.49707 -51.833 -13.4971 -73.5s-21.833 -40 -38.5 -55s-36.334 -26.333 -59.001 -34s-47.667 -11.5 -75 -11.5c-26.667 0 -51.334 3.83301 -74.001 11.5s-42.334 19 -59.001 34s-29.5 33.333 -38.5 55
s-13.5 46.167 -13.5 73.5v507h95v-507c0 -60.667 30.333 -91 91 -91s91 30.333 91 91v507h94v-507z" />
    <glyph glyph-name="Udieresis" unicode="&#xdc;" horiz-adv-x="475" 
d="M139 732v90h75v-90h-75zM269 732v90h75v-90h-75zM423 159c0 -27.333 -4.49707 -51.833 -13.4971 -73.5s-21.833 -40 -38.5 -55s-36.334 -26.333 -59.001 -34s-47.667 -11.5 -75 -11.5c-26.667 0 -51.334 3.83301 -74.001 11.5s-42.334 19 -59.001 34
s-29.5 33.333 -38.5 55s-13.5 46.167 -13.5 73.5v507h95v-507c0 -60.667 30.333 -91 91 -91s91 30.333 91 91v507h94v-507z" />
    <glyph glyph-name="Yacute" unicode="&#xdd;" horiz-adv-x="407" 
d="M237 704h-55l42 135h89zM252 268v-268h-94v268l-161 398h102l109 -307l109 307h95z" />
    <glyph glyph-name="Thorn" unicode="&#xde;" horiz-adv-x="430" 
d="M308 398c0 22 -4.33301 39.167 -13 51.5s-24.334 18.5 -47.001 18.5h-99v-236h99c22.667 0 38.334 6 47.001 18s13 29 13 51v97zM403 304c0 -48 -12.5 -85.5 -37.5 -112.5s-64.5 -40.5 -118.5 -40.5h-98v-151h-95v666h95v-116h98c54 0 93.5 -13.667 118.5 -41
s37.5 -65 37.5 -113v-92z" />
    <glyph glyph-name="germandbls" unicode="&#xdf;" horiz-adv-x="385" 
d="M344 116c0 -40 -11.1699 -70.6699 -33.5029 -92.0029s-51.5 -32 -87.5 -32c-7.33301 0 -14.666 1 -21.999 3s-13.333 4.66699 -18 8v35c28.667 0 48.834 5.83301 60.501 17.5s17.5 27.834 17.5 48.501v166c0 18.667 -6 32.334 -18 41.001s-31 13 -57 13v56
c25.333 0 43.5 5.16699 54.5 15.5s16.5 24.833 16.5 43.5v86c0 45.333 -20 68 -60 68s-60 -23.667 -60 -71v-522h-85v509c0 46 11.833 83.667 35.5 113s58.834 44 105.501 44c50 0 87.167 -13.333 111.5 -40s36.5 -62 36.5 -106v-57
c0 -23.333 -4.83301 -44.666 -14.5 -63.999s-23.834 -33.333 -42.501 -42c22.667 -9.33301 38.334 -22.5 47.001 -39.5s13 -38.833 13 -65.5v-136z" />
    <glyph glyph-name="agrave" unicode="&#xe0;" horiz-adv-x="372" 
d="M153 538l-77 135h90l41 -135h-54zM240 221c-87.333 -10.667 -131 -41.667 -131 -93v-12c0 -15.333 4.33301 -28.333 13 -39s21.667 -16 39 -16c20 0 38.167 6.5 54.5 19.5s24.5 30.167 24.5 51.5v89zM322 -8c-16.667 0 -31 4.33203 -43 12.999s-18.333 23.667 -19 45
c-13.333 -18 -29.833 -32.167 -49.5 -42.5s-41.167 -15.5 -64.5 -15.5c-36 0 -64.333 10.667 -85 32s-31 51 -31 89v11c0 26.667 6 49 18 67s27.833 32.833 47.5 44.5s42 21 67 28s50.833 12.5 77.5 16.5v65c0 18 -4.66699 32.167 -14 42.5s-23.666 15.5 -42.999 15.5
c-23.333 0 -38.666 -5 -45.999 -15s-11 -25.667 -11 -47v-24h-79v27c0 18 2.66699 35 8 51s13.666 30 24.999 42s25.5 21.5 42.5 28.5s37.167 10.5 60.5 10.5c25.333 0 46.666 -3.66699 63.999 -11s31.5 -17.666 42.5 -30.999s18.833 -28.833 23.5 -46.5s7 -37.167 7 -58.5
v-248c0 -17.333 9 -26 27 -26v-63h-25z" />
    <glyph glyph-name="aacute" unicode="&#xe1;" horiz-adv-x="372" 
d="M206 538h-55l42 135h89zM240 221c-87.333 -10.667 -131 -41.667 -131 -93v-12c0 -15.333 4.33301 -28.333 13 -39s21.667 -16 39 -16c20 0 38.167 6.5 54.5 19.5s24.5 30.167 24.5 51.5v89zM322 -8c-16.667 0 -31 4.33203 -43 12.999s-18.333 23.667 -19 45
c-13.333 -18 -29.833 -32.167 -49.5 -42.5s-41.167 -15.5 -64.5 -15.5c-36 0 -64.333 10.667 -85 32s-31 51 -31 89v11c0 26.667 6 49 18 67s27.833 32.833 47.5 44.5s42 21 67 28s50.833 12.5 77.5 16.5v65c0 18 -4.66699 32.167 -14 42.5s-23.666 15.5 -42.999 15.5
c-23.333 0 -38.666 -5 -45.999 -15s-11 -25.667 -11 -47v-24h-79v27c0 18 2.66699 35 8 51s13.666 30 24.999 42s25.5 21.5 42.5 28.5s37.167 10.5 60.5 10.5c25.333 0 46.666 -3.66699 63.999 -11s31.5 -17.666 42.5 -30.999s18.833 -28.833 23.5 -46.5s7 -37.167 7 -58.5
v-248c0 -17.333 9 -26 27 -26v-63h-25z" />
    <glyph glyph-name="acircumflex" unicode="&#xe2;" horiz-adv-x="372" 
d="M312 548c-6.66699 -2 -14 -3.66699 -22 -5s-15.333 -2 -22 -2c-20.667 0 -38.334 7 -53.001 21s-25 33 -31 57c-5.33301 -24 -15.5 -43 -30.5 -57s-33.167 -21 -54.5 -21c-6.66699 0 -13 0.666992 -19 2s-12.667 3 -20 5v25c43.333 0 73.333 30.667 90 92h73
c16.667 -61.333 46.334 -92 89.001 -92v-25zM240 221c-87.333 -10.667 -131 -41.667 -131 -93v-12c0 -15.333 4.33301 -28.333 13 -39s21.667 -16 39 -16c20 0 38.167 6.5 54.5 19.5s24.5 30.167 24.5 51.5v89zM322 -8c-16.667 0 -31 4.33203 -43 12.999
s-18.333 23.667 -19 45c-13.333 -18 -29.833 -32.167 -49.5 -42.5s-41.167 -15.5 -64.5 -15.5c-36 0 -64.333 10.667 -85 32s-31 51 -31 89v11c0 26.667 6 49 18 67s27.833 32.833 47.5 44.5s42 21 67 28s50.833 12.5 77.5 16.5v65c0 18 -4.66699 32.167 -14 42.5
s-23.666 15.5 -42.999 15.5c-23.333 0 -38.666 -5 -45.999 -15s-11 -25.667 -11 -47v-24h-79v27c0 18 2.66699 35 8 51s13.666 30 24.999 42s25.5 21.5 42.5 28.5s37.167 10.5 60.5 10.5c25.333 0 46.666 -3.66699 63.999 -11s31.5 -17.666 42.5 -30.999
s18.833 -28.833 23.5 -46.5s7 -37.167 7 -58.5v-248c0 -17.333 9 -26 27 -26v-63h-25z" />
    <glyph glyph-name="atilde" unicode="&#xe3;" horiz-adv-x="372" 
d="M308 627c0 -22.667 -5.50098 -40.666 -16.501 -53.999s-28.167 -20 -51.5 -20c-12 0 -23.833 2.83301 -35.5 8.5s-23 11.667 -34 18l-30.5 18c-9.33301 5.66699 -17 8.5 -23 8.5c-7.33301 0 -12.166 -1.83301 -14.499 -5.5s-3.5 -8.83398 -3.5 -15.501v-33h-38
c-4 6 -7.16699 12.167 -9.5 18.5s-3.5 13.5 -3.5 21.5c0 22.667 5.5 40.667 16.5 54s28.167 20 51.5 20c12 0 24 -2.83301 36 -8.5s23.5 -11.667 34.5 -18l30 -18c9 -5.66699 16.5 -8.5 22.5 -8.5c7.33301 0 12.333 1.83301 15 5.5s4 9.16699 4 16.5v33h37
c8.66699 -11.333 13 -25 13 -41zM239.999 221.001c-87.333 -10.667 -131 -41.667 -131 -93v-12c0 -15.333 4.33301 -28.333 13 -39s21.667 -16 39 -16c20 0 38.167 6.5 54.5 19.5s24.5 30.167 24.5 51.5v89zM321.999 -7.99902c-16.667 0 -31 4.33203 -43 12.999
s-18.333 23.667 -19 45c-13.333 -18 -29.833 -32.167 -49.5 -42.5s-41.167 -15.5 -64.5 -15.5c-36 0 -64.333 10.667 -85 32s-31 51 -31 89v11c0 26.667 6 49 18 67s27.833 32.833 47.5 44.5s42 21 67 28s50.833 12.5 77.5 16.5v65c0 18 -4.66699 32.167 -14 42.5
s-23.666 15.5 -42.999 15.5c-23.333 0 -38.666 -5 -45.999 -15s-11 -25.667 -11 -47v-24h-79v27c0 18 2.66699 35 8 51s13.666 30 24.999 42s25.5 21.5 42.5 28.5s37.167 10.5 60.5 10.5c25.333 0 46.666 -3.66699 63.999 -11s31.5 -17.666 42.5 -30.999
s18.833 -28.833 23.5 -46.5s7 -37.167 7 -58.5v-248c0 -17.333 9 -26 27 -26v-63h-25z" />
    <glyph glyph-name="adieresis" unicode="&#xe4;" horiz-adv-x="372" 
d="M76 566v90h75v-90h-75zM206 566v90h75v-90h-75zM240 221c-87.333 -10.667 -131 -41.667 -131 -93v-12c0 -15.333 4.33301 -28.333 13 -39s21.667 -16 39 -16c20 0 38.167 6.5 54.5 19.5s24.5 30.167 24.5 51.5v89zM322 -8c-16.667 0 -31 4.33203 -43 12.999
s-18.333 23.667 -19 45c-13.333 -18 -29.833 -32.167 -49.5 -42.5s-41.167 -15.5 -64.5 -15.5c-36 0 -64.333 10.667 -85 32s-31 51 -31 89v11c0 26.667 6 49 18 67s27.833 32.833 47.5 44.5s42 21 67 28s50.833 12.5 77.5 16.5v65c0 18 -4.66699 32.167 -14 42.5
s-23.666 15.5 -42.999 15.5c-23.333 0 -38.666 -5 -45.999 -15s-11 -25.667 -11 -47v-24h-79v27c0 18 2.66699 35 8 51s13.666 30 24.999 42s25.5 21.5 42.5 28.5s37.167 10.5 60.5 10.5c25.333 0 46.666 -3.66699 63.999 -11s31.5 -17.666 42.5 -30.999
s18.833 -28.833 23.5 -46.5s7 -37.167 7 -58.5v-248c0 -17.333 9 -26 27 -26v-63h-25z" />
    <glyph glyph-name="aring" unicode="&#xe5;" horiz-adv-x="372" 
d="M223 619c0 14 -3.5 25 -10.5 33s-17.167 12 -30.5 12c-12.667 0 -22.5 -4 -29.5 -12s-10.5 -19 -10.5 -33c0 -13.333 3.5 -24.166 10.5 -32.499s16.833 -12.5 29.5 -12.5c13.333 0 23.5 4.16699 30.5 12.5s10.5 19.166 10.5 32.499zM263 619
c0 -21.333 -7.5 -40.166 -22.5 -56.499s-34.5 -24.5 -58.5 -24.5c-23.333 0 -42.666 8.16699 -57.999 24.5s-23 35.166 -23 56.499s7.66699 40.166 23 56.499s34.666 24.5 57.999 24.5c24 0 43.5 -8.16699 58.5 -24.5s22.5 -35.166 22.5 -56.499zM240 221
c-87.333 -10.667 -131 -41.667 -131 -93v-12c0 -15.333 4.33301 -28.333 13 -39s21.667 -16 39 -16c20 0 38.167 6.5 54.5 19.5s24.5 30.167 24.5 51.5v89zM322 -8c-16.667 0 -31 4.33203 -43 12.999s-18.333 23.667 -19 45c-13.333 -18 -29.833 -32.167 -49.5 -42.5
s-41.167 -15.5 -64.5 -15.5c-36 0 -64.333 10.667 -85 32s-31 51 -31 89v11c0 26.667 6 49 18 67s27.833 32.833 47.5 44.5s42 21 67 28s50.833 12.5 77.5 16.5v65c0 18 -4.66699 32.167 -14 42.5s-23.666 15.5 -42.999 15.5c-23.333 0 -38.666 -5 -45.999 -15
s-11 -25.667 -11 -47v-24h-79v27c0 18 2.66699 35 8 51s13.666 30 24.999 42s25.5 21.5 42.5 28.5s37.167 10.5 60.5 10.5c25.333 0 46.666 -3.66699 63.999 -11s31.5 -17.666 42.5 -30.999s18.833 -28.833 23.5 -46.5s7 -37.167 7 -58.5v-248c0 -17.333 9 -26 27 -26v-63
h-25z" />
    <glyph glyph-name="ae" unicode="&#xe6;" horiz-adv-x="559" 
d="M242 221c-87.333 -10.667 -131 -41.667 -131 -93v-12c0 -15.333 4.16699 -28.333 12.5 -39s21.5 -16 39.5 -16c20 0 38.167 6.5 54.5 19.5s24.5 30.167 24.5 51.5v89zM450 333c0 21.333 -5.33301 38.5 -16 51.5s-26.667 19.5 -48 19.5s-37.5 -6.5 -48.5 -19.5
s-16.5 -30.167 -16.5 -51.5v-56h129v56zM524 145c0 -24 -3.33203 -45.333 -9.99902 -64s-15.834 -34.667 -27.501 -48s-25.334 -23.5 -41.001 -30.5s-32.5 -10.5 -50.5 -10.5c-26 0 -49.667 4.5 -71 13.5s-38.666 25.833 -51.999 50.5
c-15.333 -21.333 -33.666 -37.333 -54.999 -48s-44 -16 -68 -16c-36 0 -64.667 10.5 -86 31.5s-32 50.833 -32 89.5v11c0 26.667 6 49 18 67s27.833 32.833 47.5 44.5s42.167 21 67.5 28s51.333 12.5 78 16.5v59c0 18.667 -4.33301 34 -13 46s-24 18 -46 18
c-21.333 0 -36.833 -5 -46.5 -15s-14.5 -25.667 -14.5 -47v-24h-73v27c0 18 2.83301 35 8.5 51s13.834 30 24.501 42s23.834 21.5 39.501 28.5s33.5 10.5 53.5 10.5c27.333 0 49.666 -5.5 66.999 -16.5s30.666 -25.833 39.999 -44.5c11.333 19.333 26.666 34.333 45.999 45
s41.666 16 66.999 16c38.667 0 69.834 -14.167 93.501 -42.5s35.5 -66.5 35.5 -114.5v-90h-203v-95c0 -21.333 5.5 -38.5 16.5 -51.5s27.167 -19.5 48.5 -19.5s37.333 6.5 48 19.5s16 30.167 16 51.5v32h74v-21z" />
    <glyph glyph-name="ccedilla" unicode="&#xe7;" horiz-adv-x="357" 
d="M145 -4c-32.667 7.33301 -58.334 24.168 -77.001 50.501s-28 59.833 -28 100.5v172c0 48 13 86.167 39 114.5s61.667 42.5 107 42.5c46 0 80.667 -13.667 104 -41s35 -65 35 -113v-20h-74v33c0 20 -5.33301 36.5 -16 49.5s-26.667 19.5 -48 19.5s-37.5 -6.5 -48.5 -19.5
s-16.5 -31.167 -16.5 -54.5v-193c0 -48.667 21.667 -73 65 -73c21.333 0 37.333 6.16699 48 18.5s16 29.166 16 50.499v32h74v-20c0 -47.333 -11.5 -84.333 -34.5 -111s-56.833 -40.667 -101.5 -42l-45 -62c4.66699 3.33301 10.334 5.33301 17.001 6s12.667 1 18 1
c26 0 45.833 -8 59.5 -24s20.5 -36.333 20.5 -61c0 -23.333 -8.16699 -43 -24.5 -59s-37.5 -24 -63.5 -24c-9.33301 0 -17.166 1 -23.499 3s-10.833 4 -13.5 6v32h20c12.667 0 22.667 2.83301 30 8.5s11 14.167 11 25.5v24c0 24.667 -13.667 37 -41 37
c-16.667 0 -32.334 -8.66699 -47.001 -26l-31 22z" />
    <glyph glyph-name="egrave" unicode="&#xe8;" horiz-adv-x="359" 
d="M157 538l-77 135h90l41 -135h-54zM251 333c0 21.333 -5.33301 38.5 -16 51.5s-26.667 19.5 -48 19.5s-37.5 -6.5 -48.5 -19.5s-16.5 -30.167 -16.5 -51.5v-56h129v56zM325 145c0 -48 -11.833 -85.5 -35.5 -112.5s-58.167 -40.5 -103.5 -40.5s-81 13.833 -107 41.5
s-39 65.5 -39 113.5v172c0 48 13 86.167 39 114.5s61.667 42.5 107 42.5s79.833 -14.167 103.5 -42.5s35.5 -66.5 35.5 -114.5v-90h-203v-95c0 -21.333 5.5 -38.5 16.5 -51.5s27.167 -19.5 48.5 -19.5s37.333 6.5 48 19.5s16 30.167 16 51.5v32h74v-21z" />
    <glyph glyph-name="eacute" unicode="&#xe9;" horiz-adv-x="359" 
d="M213 538h-55l42 135h89zM251 333c0 21.333 -5.33301 38.5 -16 51.5s-26.667 19.5 -48 19.5s-37.5 -6.5 -48.5 -19.5s-16.5 -30.167 -16.5 -51.5v-56h129v56zM325 145c0 -48 -11.833 -85.5 -35.5 -112.5s-58.167 -40.5 -103.5 -40.5s-81 13.833 -107 41.5
s-39 65.5 -39 113.5v172c0 48 13 86.167 39 114.5s61.667 42.5 107 42.5s79.833 -14.167 103.5 -42.5s35.5 -66.5 35.5 -114.5v-90h-203v-95c0 -21.333 5.5 -38.5 16.5 -51.5s27.167 -19.5 48.5 -19.5s37.333 6.5 48 19.5s16 30.167 16 51.5v32h74v-21z" />
    <glyph glyph-name="ecircumflex" unicode="&#xea;" horiz-adv-x="359" 
d="M305 548c-6.66699 -2 -14 -3.66699 -22 -5s-15.333 -2 -22 -2c-20.667 0 -38.334 7 -53.001 21s-25 33 -31 57c-5.33301 -24 -15.5 -43 -30.5 -57s-33.167 -21 -54.5 -21c-6.66699 0 -13 0.666992 -19 2s-12.667 3 -20 5v25c43.333 0 73.333 30.667 90 92h73
c16.667 -61.333 46.334 -92 89.001 -92v-25zM251 333c0 21.333 -5.33301 38.5 -16 51.5s-26.667 19.5 -48 19.5s-37.5 -6.5 -48.5 -19.5s-16.5 -30.167 -16.5 -51.5v-56h129v56zM325 145c0 -48 -11.833 -85.5 -35.5 -112.5s-58.167 -40.5 -103.5 -40.5s-81 13.833 -107 41.5
s-39 65.5 -39 113.5v172c0 48 13 86.167 39 114.5s61.667 42.5 107 42.5s79.833 -14.167 103.5 -42.5s35.5 -66.5 35.5 -114.5v-90h-203v-95c0 -21.333 5.5 -38.5 16.5 -51.5s27.167 -19.5 48.5 -19.5s37.333 6.5 48 19.5s16 30.167 16 51.5v32h74v-21z" />
    <glyph glyph-name="edieresis" unicode="&#xeb;" horiz-adv-x="359" 
d="M79 566v90h75v-90h-75zM209 566v90h75v-90h-75zM251 333c0 21.333 -5.33301 38.5 -16 51.5s-26.667 19.5 -48 19.5s-37.5 -6.5 -48.5 -19.5s-16.5 -30.167 -16.5 -51.5v-56h129v56zM325 145c0 -48 -11.833 -85.5 -35.5 -112.5s-58.167 -40.5 -103.5 -40.5
s-81 13.833 -107 41.5s-39 65.5 -39 113.5v172c0 48 13 86.167 39 114.5s61.667 42.5 107 42.5s79.833 -14.167 103.5 -42.5s35.5 -66.5 35.5 -114.5v-90h-203v-95c0 -21.333 5.5 -38.5 16.5 -51.5s27.167 -19.5 48.5 -19.5s37.333 6.5 48 19.5s16 30.167 16 51.5v32h74v-21
z" />
    <glyph glyph-name="igrave" unicode="&#xec;" horiz-adv-x="180" 
d="M59 538l-77 135h90l41 -135h-54zM48 0v468h84v-468h-84z" />
    <glyph glyph-name="iacute" unicode="&#xed;" horiz-adv-x="180" 
d="M117 538h-55l42 135h89zM48 0v468h84v-468h-84z" />
    <glyph glyph-name="icircumflex" unicode="&#xee;" horiz-adv-x="180" 
d="M218 548c-6.66699 -2 -14 -3.66699 -22 -5s-15.333 -2 -22 -2c-20.667 0 -38.334 7 -53.001 21s-25 33 -31 57c-5.33301 -24 -15.5 -43 -30.5 -57s-33.167 -21 -54.5 -21c-6.66699 0 -13 0.666992 -19 2s-12.667 3 -20 5v25c43.333 0 73.333 30.667 90 92h73
c16.667 -61.333 46.334 -92 89.001 -92v-25zM48 0v468h84v-468h-84z" />
    <glyph glyph-name="idieresis" unicode="&#xef;" horiz-adv-x="180" 
d="M-15 566v90h75v-90h-75zM115 566v90h75v-90h-75zM48 0v468h84v-468h-84z" />
    <glyph glyph-name="eth" unicode="&#xf0;" horiz-adv-x="376" 
d="M122 130c0 -19.333 6 -35 18 -47s27.667 -18 47 -18s35.166 6 47.499 18s18.5 27.667 18.5 47v194c0 24 -5.66699 42.833 -17 56.5s-27.666 20.5 -48.999 20.5c-20.667 0 -36.667 -6 -48 -18s-17 -32.333 -17 -61v-192zM306 646l18.998 -46l-38 -20
c32.667 -50 49 -110.667 49 -182v-253c0 -24 -3.83301 -45.333 -11.5 -64s-18.167 -34.667 -31.5 -48s-29 -23.5 -47 -30.5s-37.667 -10.5 -59 -10.5c-20.667 0 -40 3.5 -58 10.5s-33.667 17.167 -47 30.5s-23.666 29.333 -30.999 48s-11 40 -11 64v196
c0 18.667 2.83301 36 8.5 52s13.667 29.667 24 41s22.5 20.333 36.5 27s29.333 10 46 10c22 0 40.833 -4.16699 56.5 -12.5s29.834 -21.833 42.501 -40.5c0 47.333 -11.333 90 -34 128l-58 -29l-18 46l46 24c-12 14 -25.167 27.333 -39.5 40s-29.5 24.667 -45.5 36v3h99
c20 -14 37.333 -29.333 52 -46z" />
    <glyph glyph-name="ntilde" unicode="&#xf1;" horiz-adv-x="394" 
d="M317 627c0 -22.667 -5.50098 -40.666 -16.501 -53.999s-28.167 -20 -51.5 -20c-12 0 -23.833 2.83301 -35.5 8.5s-23 11.667 -34 18l-30.5 18c-9.33301 5.66699 -17 8.5 -23 8.5c-7.33301 0 -12.166 -1.83301 -14.499 -5.5s-3.5 -8.83398 -3.5 -15.501v-33h-38
c-4 6 -7.16699 12.167 -9.5 18.5s-3.5 13.5 -3.5 21.5c0 22.667 5.5 40.667 16.5 54s28.167 20 51.5 20c12 0 24 -2.83301 36 -8.5s23.5 -11.667 34.5 -18l30 -18c9 -5.66699 16.5 -8.5 22.5 -8.5c7.33301 0 12.333 1.83301 15 5.5s4 9.16699 4 16.5v33h37
c8.66699 -11.333 13 -25 13 -41zM262.999 0.000976562l-0.00195312 342c0 20 -5 35.833 -15 47.5s-23.667 17.5 -41 17.5c-12 0 -22.667 -3.83301 -32 -11.5s-17.166 -16.667 -23.499 -27s-11.166 -21.333 -14.499 -33s-5 -21.5 -5 -29.5v-306h-84v468h70l6 -93
c12.667 36 28.167 61.667 46.5 77s39.5 23 63.5 23c38 0 66.5 -11.833 85.5 -35.5s28.5 -55.167 28.5 -94.5v-345h-85z" />
    <glyph glyph-name="ograve" unicode="&#xf2;" horiz-adv-x="374" 
d="M158 538l-77 135h90l41 -135h-54zM251 335c0 20 -5.33301 36.5 -16 49.5s-26.667 19.5 -48 19.5s-37.333 -6.5 -48 -19.5s-16 -29.5 -16 -49.5v-202c0 -21.333 5.33301 -38.166 16 -50.499s26.667 -18.5 48 -18.5s37.333 6.16699 48 18.5s16 29.166 16 50.499v202z
M333 147c0 -48 -13 -85.833 -39 -113.5s-61.667 -41.5 -107 -41.5s-81.166 13.833 -107.499 41.5s-39.5 65.5 -39.5 113.5v172c0 48 13.167 86.167 39.5 114.5s62.166 42.5 107.499 42.5s81 -14.167 107 -42.5s39 -66.5 39 -114.5v-172z" />
    <glyph glyph-name="oacute" unicode="&#xf3;" horiz-adv-x="374" 
d="M215 538h-55l42 135h89zM251 335c0 20 -5.33301 36.5 -16 49.5s-26.667 19.5 -48 19.5s-37.333 -6.5 -48 -19.5s-16 -29.5 -16 -49.5v-202c0 -21.333 5.33301 -38.166 16 -50.499s26.667 -18.5 48 -18.5s37.333 6.16699 48 18.5s16 29.166 16 50.499v202zM333 147
c0 -48 -13 -85.833 -39 -113.5s-61.667 -41.5 -107 -41.5s-81.166 13.833 -107.499 41.5s-39.5 65.5 -39.5 113.5v172c0 48 13.167 86.167 39.5 114.5s62.166 42.5 107.499 42.5s81 -14.167 107 -42.5s39 -66.5 39 -114.5v-172z" />
    <glyph glyph-name="ocircumflex" unicode="&#xf4;" horiz-adv-x="374" 
d="M316 548c-6.66699 -2 -14 -3.66699 -22 -5s-15.333 -2 -22 -2c-20.667 0 -38.334 7 -53.001 21s-25 33 -31 57c-5.33301 -24 -15.5 -43 -30.5 -57s-33.167 -21 -54.5 -21c-6.66699 0 -13 0.666992 -19 2s-12.667 3 -20 5v25c43.333 0 73.333 30.667 90 92h73
c16.667 -61.333 46.334 -92 89.001 -92v-25zM251 335c0 20 -5.33301 36.5 -16 49.5s-26.667 19.5 -48 19.5s-37.333 -6.5 -48 -19.5s-16 -29.5 -16 -49.5v-202c0 -21.333 5.33301 -38.166 16 -50.499s26.667 -18.5 48 -18.5s37.333 6.16699 48 18.5s16 29.166 16 50.499v202
zM333 147c0 -48 -13 -85.833 -39 -113.5s-61.667 -41.5 -107 -41.5s-81.166 13.833 -107.499 41.5s-39.5 65.5 -39.5 113.5v172c0 48 13.167 86.167 39.5 114.5s62.166 42.5 107.499 42.5s81 -14.167 107 -42.5s39 -66.5 39 -114.5v-172z" />
    <glyph glyph-name="otilde" unicode="&#xf5;" horiz-adv-x="374" 
d="M309 627c0 -22.667 -5.50098 -40.666 -16.501 -53.999s-28.167 -20 -51.5 -20c-12 0 -23.833 2.83301 -35.5 8.5s-23 11.667 -34 18l-30.5 18c-9.33301 5.66699 -17 8.5 -23 8.5c-7.33301 0 -12.166 -1.83301 -14.499 -5.5s-3.5 -8.83398 -3.5 -15.501v-33h-38
c-4 6 -7.16699 12.167 -9.5 18.5s-3.5 13.5 -3.5 21.5c0 22.667 5.5 40.667 16.5 54s28.167 20 51.5 20c12 0 24 -2.83301 36 -8.5s23.5 -11.667 34.5 -18l30 -18c9 -5.66699 16.5 -8.5 22.5 -8.5c7.33301 0 12.333 1.83301 15 5.5s4 9.16699 4 16.5v33h37
c8.66699 -11.333 13 -25 13 -41zM250.999 335.001c0 20 -5.33301 36.5 -16 49.5s-26.667 19.5 -48 19.5s-37.333 -6.5 -48 -19.5s-16 -29.5 -16 -49.5v-202c0 -21.333 5.33301 -38.166 16 -50.499s26.667 -18.5 48 -18.5s37.333 6.16699 48 18.5s16 29.166 16 50.499v202z
M332.999 147.001c0 -48 -13 -85.833 -39 -113.5s-61.667 -41.5 -107 -41.5s-81.166 13.833 -107.499 41.5s-39.5 65.5 -39.5 113.5v172c0 48 13.167 86.167 39.5 114.5s62.166 42.5 107.499 42.5s81 -14.167 107 -42.5s39 -66.5 39 -114.5v-172z" />
    <glyph glyph-name="odieresis" unicode="&#xf6;" horiz-adv-x="374" 
d="M85 566v90h75v-90h-75zM215 566v90h75v-90h-75zM251 335c0 20 -5.33301 36.5 -16 49.5s-26.667 19.5 -48 19.5s-37.333 -6.5 -48 -19.5s-16 -29.5 -16 -49.5v-202c0 -21.333 5.33301 -38.166 16 -50.499s26.667 -18.5 48 -18.5s37.333 6.16699 48 18.5
s16 29.166 16 50.499v202zM333 147c0 -48 -13 -85.833 -39 -113.5s-61.667 -41.5 -107 -41.5s-81.166 13.833 -107.499 41.5s-39.5 65.5 -39.5 113.5v172c0 48 13.167 86.167 39.5 114.5s62.166 42.5 107.499 42.5s81 -14.167 107 -42.5s39 -66.5 39 -114.5v-172z" />
    <glyph glyph-name="divide" unicode="&#xf7;" 
d="M25 800h450v-1000h-450v1000z" />
    <glyph glyph-name="oslash" unicode="&#xf8;" horiz-adv-x="375" 
d="M251 297l-121.999 -197c4.66699 -11.333 11.667 -20.166 21 -26.499s21.666 -9.5 36.999 -9.5c21.333 0 37.333 6.16699 48 18.5s16 29.166 16 50.499v164zM246.001 366c-4.66699 11.333 -11.833 20.5 -21.5 27.5s-22.167 10.5 -37.5 10.5
c-21.333 0 -37.333 -6.5 -48 -19.5s-16 -29.5 -16 -49.5v-167zM356.002 466l-19.999 -32c-5.33301 -8 -10 -15.5 -14 -22.5s-6.33301 -10.5 -7 -10.5c12 -22.667 18 -50 18 -82v-172c0 -48 -13 -85.833 -39 -113.5s-61.667 -41.5 -107 -41.5c-42 0 -76 12.333 -102 37
l-33 -52l-32 25l38 62c-12 23.333 -18 51 -18 83v172c0 48 13.167 86.167 39.5 114.5s62.166 42.5 107.499 42.5c42.667 0 77 -13 103 -39l33 54z" />
    <glyph glyph-name="ugrave" unicode="&#xf9;" horiz-adv-x="395" 
d="M171 538l-77 135h90l41 -135h-54zM277 0l-5.99805 80.001c-11.333 -31.333 -26.5 -53.833 -45.5 -67.5s-40.5 -20.5 -64.5 -20.5c-38 0 -66.5 11.833 -85.5 35.5s-28.5 55.167 -28.5 94.5v346h85v-343c0 -20.667 5 -36.834 15 -48.501s23.667 -17.5 41 -17.5
c12 0 22.667 3.83301 32 11.5s17.166 16.667 23.499 27s11.166 21.333 14.499 33s5 21.5 5 29.5v308h84v-468h-70z" />
    <glyph glyph-name="uacute" unicode="&#xfa;" horiz-adv-x="395" 
d="M224 538h-55l42 135h89zM277 0l-5.99805 80.001c-11.333 -31.333 -26.5 -53.833 -45.5 -67.5s-40.5 -20.5 -64.5 -20.5c-38 0 -66.5 11.833 -85.5 35.5s-28.5 55.167 -28.5 94.5v346h85v-343c0 -20.667 5 -36.834 15 -48.501s23.667 -17.5 41 -17.5
c12 0 22.667 3.83301 32 11.5s17.166 16.667 23.499 27s11.166 21.333 14.499 33s5 21.5 5 29.5v308h84v-468h-70z" />
    <glyph glyph-name="ucircumflex" unicode="&#xfb;" horiz-adv-x="395" 
d="M324 548c-6.66699 -2 -14 -3.66699 -22 -5s-15.333 -2 -22 -2c-20.667 0 -38.334 7 -53.001 21s-25 33 -31 57c-5.33301 -24 -15.5 -43 -30.5 -57s-33.167 -21 -54.5 -21c-6.66699 0 -13 0.666992 -19 2s-12.667 3 -20 5v25c43.333 0 73.333 30.667 90 92h73
c16.667 -61.333 46.334 -92 89.001 -92v-25zM277 0l-5.99805 80.001c-11.333 -31.333 -26.5 -53.833 -45.5 -67.5s-40.5 -20.5 -64.5 -20.5c-38 0 -66.5 11.833 -85.5 35.5s-28.5 55.167 -28.5 94.5v346h85v-343c0 -20.667 5 -36.834 15 -48.501s23.667 -17.5 41 -17.5
c12 0 22.667 3.83301 32 11.5s17.166 16.667 23.499 27s11.166 21.333 14.499 33s5 21.5 5 29.5v308h84v-468h-70z" />
    <glyph glyph-name="udieresis" unicode="&#xfc;" horiz-adv-x="395" 
d="M95 566v90h75v-90h-75zM225 566v90h75v-90h-75zM277 0l-5.99805 80.001c-11.333 -31.333 -26.5 -53.833 -45.5 -67.5s-40.5 -20.5 -64.5 -20.5c-38 0 -66.5 11.833 -85.5 35.5s-28.5 55.167 -28.5 94.5v346h85v-343c0 -20.667 5 -36.834 15 -48.501
s23.667 -17.5 41 -17.5c12 0 22.667 3.83301 32 11.5s17.166 16.667 23.499 27s11.166 21.333 14.499 33s5 21.5 5 29.5v308h84v-468h-70z" />
    <glyph glyph-name="yacute" unicode="&#xfd;" horiz-adv-x="338" 
d="M198 538h-55l42 135h89zM201 -31c-5.33301 -20.667 -11 -39.334 -17 -56.001s-13.667 -30.667 -23 -42s-21 -20.166 -35 -26.499s-31.667 -9.5 -53 -9.5h-31v67h24c20.667 0 34.5 3.5 41.5 10.5s12.5 18.167 16.5 33.5l8 40l-124 482h84l56 -259l20 -105l21 105l56 259
h83z" />
    <glyph glyph-name="thorn" unicode="&#xfe;" horiz-adv-x="385" 
d="M263 322c0 28.667 -5.66699 49.5 -17 62.5s-27 19.5 -47 19.5c-21.333 0 -38 -6.83301 -50 -20.5s-18 -32.5 -18 -56.5v-185c0 -24 6 -42.833 18 -56.5s28.667 -20.5 50 -20.5c20 0 35.667 6.5 47 19.5s17 33.833 17 62.5v175zM345 122c0 -18.667 -2.83301 -36 -8.5 -52
s-13.167 -29.833 -22.5 -41.5s-20.5 -20.667 -33.5 -27s-26.833 -9.5 -41.5 -9.5c-25.333 0 -46 4.16699 -62 12.5s-31.333 22.166 -46 41.499v-208h-83v828h83v-243c14.667 19.333 30 33 46 41s36.667 12 62 12c14.667 0 28.5 -3.16699 41.5 -9.5
s24.167 -15.166 33.5 -26.499s16.833 -25 22.5 -41s8.5 -33.667 8.5 -53v-224z" />
    <glyph glyph-name="ydieresis" unicode="&#xff;" horiz-adv-x="338" 
d="M68 566v90h75v-90h-75zM198 566v90h75v-90h-75zM201 -31c-5.33301 -20.667 -11 -39.334 -17 -56.001s-13.667 -30.667 -23 -42s-21 -20.166 -35 -26.499s-31.667 -9.5 -53 -9.5h-31v67h24c20.667 0 34.5 3.5 41.5 10.5s12.5 18.167 16.5 33.5l8 40l-124 482h84l56 -259
l20 -105l21 105l56 259h83z" />
    <glyph glyph-name="dotlessi" unicode="&#x131;" horiz-adv-x="180" 
d="M48 0v468h84v-468h-84z" />
    <glyph glyph-name="Lslash" unicode="&#x141;" horiz-adv-x="378" 
d="M191 86h211v-86h-306v254l-76 -48l-21 49l97 63v348h95v-287l75 48l21 -49l-96 -63v-229z" />
    <glyph glyph-name="lslash" unicode="&#x142;" horiz-adv-x="242" 
d="M163 334v-334h-84v255l-63 -62l-31 43l94 91v339h84v-260l59 58l32 -42z" />
    <glyph glyph-name="OE" unicode="&#x152;" horiz-adv-x="656" 
d="M317 579h-79c-34 0 -58.833 -8.33301 -74.5 -25s-23.5 -44 -23.5 -82v-279c0 -37.333 7.83301 -64.5 23.5 -81.5s40.5 -25.5 74.5 -25.5h79v493zM234 0c-32 0 -60 4.66504 -84 13.998s-43.667 22.5 -59 39.5s-26.833 37.333 -34.5 61s-11.5 49.834 -11.5 78.501v280
c0 28.667 3.83301 54.834 11.5 78.501s19.167 44 34.5 61s35 30.167 59 39.5s52 14 84 14h393v-86h-215v-190h156v-82h-156v-222h215v-86h-393z" />
    <glyph glyph-name="oe" unicode="&#x153;" horiz-adv-x="570" 
d="M251 335c0 20 -5.5 36.5 -16.5 49.5s-27.167 19.5 -48.5 19.5c-20.667 0 -36.5 -6.5 -47.5 -19.5s-16.5 -29.5 -16.5 -49.5v-202c0 -21.333 5.5 -38.166 16.5 -50.499s26.833 -18.5 47.5 -18.5c21.333 0 37.5 6.16699 48.5 18.5s16.5 29.166 16.5 50.499v202zM462 333
c0 21.333 -5.5 38.5 -16.5 51.5s-27.167 19.5 -48.5 19.5s-37.333 -6.5 -48 -19.5s-16 -30.167 -16 -51.5v-56h129v56zM536 145c0 -48 -11.8311 -85.5 -35.498 -112.5s-55.167 -40.5 -94.5 -40.5c-52 0 -90 20.667 -114 62c-22.667 -41.333 -61 -62 -115 -62
c-18.667 0 -36.334 3.5 -53.001 10.5s-31.334 17.333 -44.001 31s-22.5 30 -29.5 49s-10.5 40.5 -10.5 64.5v172c0 24 3.5 45.667 10.5 65s16.833 35.833 29.5 49.5s27.334 24.167 44.001 31.5s34.334 11 53.001 11c26.667 0 49.667 -5.5 69 -16.5
s34.666 -26.5 45.999 -46.5c11.333 20 26.666 35.5 45.999 46.5s42 16.5 68 16.5c39.333 0 70.833 -14.167 94.5 -42.5s35.5 -66.5 35.5 -114.5v-90h-203v-95c0 -21.333 5.33301 -38.5 16 -51.5s26.667 -19.5 48 -19.5s37.5 6.5 48.5 19.5s16.5 30.167 16.5 51.5v32h74v-21z
" />
    <glyph glyph-name="Scaron" unicode="&#x160;" horiz-adv-x="427" 
d="M336 800c-42.667 0 -72.334 -30.333 -89.001 -91h-73c-16.667 60.667 -46.667 91 -90 91v26c7.33301 2 15 3.5 23 4.5s15 1.5 21 1.5c21.333 0 39.333 -6.83301 54 -20.5s24.667 -32.5 30 -56.5c6 24 16.5 42.833 31.5 56.5s33.167 20.5 54.5 20.5
c12.667 0 25.334 -2 38.001 -6v-26zM396 166c0 -27.333 -4.66992 -52.1699 -14.0029 -74.5029s-22.166 -41.333 -38.499 -57s-35.666 -27.834 -57.999 -36.501s-46.5 -13 -72.5 -13c-27.333 0 -52.333 4.33301 -75 13s-42 20.5 -58 35.5s-28.333 32.833 -37 53.5
s-13 43 -13 67v46h94v-31c0 -68.667 30 -103 90 -103c29.333 0 51.333 8 66 24s22 36.667 22 62c0 14.667 -1.83301 28.167 -5.5 40.5s-9.66699 24.333 -18 36s-19.5 23.334 -33.5 35.001s-31.667 24.167 -53 37.5c-18.667 12 -37.167 25.167 -55.5 39.5
s-34.833 30 -49.5 47s-26.5 35.667 -35.5 56s-13.5 42.5 -13.5 66.5s3.83301 46.333 11.5 67s19 38.667 34 54s33.5 27.333 55.5 36s47 13 75 13c27.333 0 51.833 -4.16699 73.5 -12.5s40.167 -20 55.5 -35s27.166 -32.833 35.499 -53.5s12.5 -43.334 12.5 -68.001v-43h-90
v31c0 28 -7 51.667 -21 71s-37 29 -69 29c-26 0 -45.667 -7 -59 -21s-20 -32.333 -20 -55c0 -14.667 1.83301 -28 5.5 -40s10.334 -23.667 20.001 -35s22.334 -23.166 38.001 -35.499s35.5 -26.166 59.5 -41.499c24 -16 45 -31.5 63 -46.5s32.667 -30.667 44 -47
s19.833 -33.666 25.5 -51.999s8.5 -38.166 8.5 -59.499z" />
    <glyph glyph-name="scaron" unicode="&#x161;" horiz-adv-x="344" 
d="M299 634c-42.667 0 -72.334 -30.333 -89.001 -91h-73c-16.667 60.667 -46.667 91 -90 91v26c7.33301 2 15 3.5 23 4.5s15 1.5 21 1.5c21.333 0 39.333 -6.83301 54 -20.5s24.667 -32.5 30 -56.5c6 24 16.5 42.833 31.5 56.5s33.167 20.5 54.5 20.5
c12.667 0 25.334 -2 38.001 -6v-26zM315 122c0 -17.333 -3.16895 -33.8301 -9.50195 -49.4971s-15.5 -29.5 -27.5 -41.5s-26.667 -21.5 -44 -28.5s-37 -10.5 -59 -10.5c-47.333 0 -83 12.667 -107 38s-36 58.333 -36 99v23h70v-21c0 -25.333 6.66699 -43.5 20 -54.5
s30.666 -16.5 51.999 -16.5c42.667 0 64 18.667 64 56c0 9.33301 -1 18 -3 26s-6 15.5 -12 22.5s-14.333 14.167 -25 21.5s-24.667 15 -42 23c-38 16 -67 35.167 -87 57.5s-30 49.833 -30 82.5c0 18 3.16699 34.667 9.5 50s15.5 28.666 27.5 39.999s26.333 20.333 43 27
s35.334 10 56.001 10c46.667 0 80.834 -11.333 102.501 -34s32.5 -54.334 32.5 -95.001v-18h-68v20c0 36.667 -22 55 -66 55c-19.333 0 -34.166 -4.33301 -44.499 -13s-15.5 -20.334 -15.5 -35.001c0 -8.66699 1.5 -16.667 4.5 -24s8 -14.5 15 -21.5s16.5 -14 28.5 -21
s27 -14.833 45 -23.5c38 -16.667 65.167 -36.5 81.5 -59.5s24.5 -51.167 24.5 -84.5z" />
    <glyph glyph-name="Ydieresis" unicode="&#x178;" horiz-adv-x="407" 
d="M101 732v90h75v-90h-75zM231 732v90h75v-90h-75zM252 268v-268h-94v268l-161 398h102l109 -307l109 307h95z" />
    <glyph glyph-name="Zcaron" unicode="&#x17d;" horiz-adv-x="413" 
d="M335 800c-42.667 0 -72.334 -30.333 -89.001 -91h-73c-16.667 60.667 -46.667 91 -90 91v26c7.33301 2 15 3.5 23 4.5s15 1.5 21 1.5c21.333 0 39.333 -6.83301 54 -20.5s24.667 -32.5 30 -56.5c6 24 16.5 42.833 31.5 56.5s33.167 20.5 54.5 20.5
c12.667 0 25.334 -2 38.001 -6v-26zM145 86h235v-86h-355v43l247 536h-234v87h351v-43z" />
    <glyph glyph-name="zcaron" unicode="&#x17e;" horiz-adv-x="316" 
d="M289 634c-42.667 0 -72.334 -30.333 -89.001 -91h-73c-16.667 60.667 -46.667 91 -90 91v26c7.33301 2 15 3.5 23 4.5s15 1.5 21 1.5c21.333 0 39.333 -6.83301 54 -20.5s24.667 -32.5 30 -56.5c6 24 16.5 42.833 31.5 56.5s33.167 20.5 54.5 20.5
c12.667 0 25.334 -2 38.001 -6v-26zM113 69h176v-69h-266v51l184 348h-175v69h263v-51z" />
    <glyph glyph-name="florin" unicode="&#x192;" horiz-adv-x="294" 
d="M269 384v-75h-75v-172c0 -48 -9 -85.667 -27 -113s-48.667 -41 -92 -41h-29v76h11c20 0 33.333 3.83301 40 11.5s10 20.5 10 38.5v200h-70v75h70v127c0 48 9 85.833 27 113.5s49 41.5 93 41.5h29v-76h-12c-20 0 -33.333 -4 -40 -12s-10 -20.667 -10 -38v-156h75z" />
    <glyph glyph-name="circumflex" unicode="&#x2c6;" horiz-adv-x="275" 
d="M264 548c-6.66699 -2 -14 -3.66699 -22 -5s-15.333 -2 -22 -2c-20.667 0 -38.334 7 -53.001 21s-25 33 -31 57c-5.33301 -24 -15.5 -43 -30.5 -57s-33.167 -21 -54.5 -21c-6.66699 0 -13 0.666992 -19 2s-12.667 3 -20 5v25c43.333 0 73.333 30.667 90 92h73
c16.667 -61.333 46.334 -92 89.001 -92v-25z" />
    <glyph glyph-name="caron" unicode="&#x2c7;" horiz-adv-x="276" 
d="M264 634c-42.667 0 -72.334 -30.333 -89.001 -91h-73c-16.667 60.667 -46.667 91 -90 91v26c7.33301 2 15 3.5 23 4.5s15 1.5 21 1.5c21.333 0 39.333 -6.83301 54 -20.5s24.667 -32.5 30 -56.5c6 24 16.5 42.833 31.5 56.5s33.167 20.5 54.5 20.5
c12.667 0 25.334 -2 38.001 -6v-26z" />
    <glyph glyph-name="breve" unicode="&#x2d8;" horiz-adv-x="243" 
d="M232 622c0 -23.333 -10.499 -42.5 -31.499 -57.5s-47.5 -22.5 -79.5 -22.5s-58.333 7.5 -79 22.5s-31 34.167 -31 57.5c0 16 3.33301 29.667 10 41h46v-18c0 -14.667 4.16699 -26.834 12.5 -36.501s22.166 -14.5 41.499 -14.5c20 0 34.167 4.83301 42.5 14.5
s12.5 21.834 12.5 36.501v18h46c3.33301 -6 5.83301 -12.167 7.5 -18.5s2.5 -13.833 2.5 -22.5z" />
    <glyph glyph-name="dotaccent" unicode="&#x2d9;" horiz-adv-x="230" 
d="M78 566v90h74v-90h-74z" />
    <glyph glyph-name="ring" unicode="&#x2da;" horiz-adv-x="179" 
d="M130 619c0 14 -3.5 25 -10.5 33s-17.167 12 -30.5 12c-12.667 0 -22.5 -4 -29.5 -12s-10.5 -19 -10.5 -33c0 -13.333 3.5 -24.166 10.5 -32.499s16.833 -12.5 29.5 -12.5c13.333 0 23.5 4.16699 30.5 12.5s10.5 19.166 10.5 32.499zM170 619
c0 -21.333 -7.5 -40.166 -22.5 -56.499s-34.5 -24.5 -58.5 -24.5c-23.333 0 -42.666 8.16699 -57.999 24.5s-23 35.166 -23 56.499s7.66699 40.166 23 56.499s34.666 24.5 57.999 24.5c24 0 43.5 -8.16699 58.5 -24.5s22.5 -35.166 22.5 -56.499z" />
    <glyph glyph-name="ogonek" unicode="&#x2db;" horiz-adv-x="191" 
d="M170 -168c-10.667 -7.33301 -31 -11 -61 -11c-27.333 0 -50 7.66699 -68 23s-27 35.666 -27 60.999c0 26.667 10.5 50.834 31.5 72.501s53.167 38.167 96.5 49.5l7 -9c-22.667 -14 -41 -29.333 -55 -46s-21 -34.667 -21 -54c0 -15.333 5.83301 -28.333 17.5 -39
s29.5 -16 53.5 -16h26v-31z" />
    <glyph glyph-name="tilde" unicode="&#x2dc;" horiz-adv-x="284" 
d="M272 627c0 -22.667 -5.50098 -40.666 -16.501 -53.999s-28.167 -20 -51.5 -20c-12 0 -23.833 2.83301 -35.5 8.5s-23 11.667 -34 18l-30.5 18c-9.33301 5.66699 -17 8.5 -23 8.5c-7.33301 0 -12.166 -1.83301 -14.499 -5.5s-3.5 -8.83398 -3.5 -15.501v-33h-38
c-4 6 -7.16699 12.167 -9.5 18.5s-3.5 13.5 -3.5 21.5c0 22.667 5.5 40.667 16.5 54s28.167 20 51.5 20c12 0 24 -2.83301 36 -8.5s23.5 -11.667 34.5 -18l30 -18c9 -5.66699 16.5 -8.5 22.5 -8.5c7.33301 0 12.333 1.83301 15 5.5s4 9.16699 4 16.5v33h37
c8.66699 -11.333 13 -25 13 -41z" />
    <glyph glyph-name="hungarumlaut" unicode="&#x2dd;" horiz-adv-x="258" 
d="M80 538h-53l34 135h77zM190 538h-53l49 135h78z" />
    <glyph glyph-name="Delta" unicode="&#x394;" 
d="M25 800h450v-1000h-450v1000z" />
    <glyph glyph-name="Delta" unicode="&#x2206;" 
d="M25 800h450v-1000h-450v1000z" />
    <glyph glyph-name="Omega" unicode="&#x3a9;" horiz-adv-x="468" 
d="M158 393v-392.999h-85v393h-54v70h54v49c0 48 10.167 85.667 30.5 113s51.5 41 93.5 41h34v-71h-23c-20 0 -34.167 -5.83301 -42.5 -17.5s-12.5 -27.834 -12.5 -48.501v-66h69v-70h-64zM391 393.001v-392.999h-84v393h-54v70h54v49c0 48 10.167 85.667 30.5 113
s51.5 41 93.5 41h33v-71h-22c-20 0 -34.167 -5.83301 -42.5 -17.5s-12.5 -27.834 -12.5 -48.501v-66h69v-70h-65z" />
    <glyph glyph-name="Omega" unicode="&#x2126;" horiz-adv-x="468" 
d="M158 393v-392.999h-85v393h-54v70h54v49c0 48 10.167 85.667 30.5 113s51.5 41 93.5 41h34v-71h-23c-20 0 -34.167 -5.83301 -42.5 -17.5s-12.5 -27.834 -12.5 -48.501v-66h69v-70h-64zM391 393.001v-392.999h-84v393h-54v70h54v49c0 48 10.167 85.667 30.5 113
s51.5 41 93.5 41h33v-71h-22c-20 0 -34.167 -5.83301 -42.5 -17.5s-12.5 -27.834 -12.5 -48.501v-66h69v-70h-65z" />
    <glyph glyph-name="pi" unicode="&#x3c0;" horiz-adv-x="680" 
d="M402 398c0 9.33301 -2.66699 16.834 -8 22.501s-14.666 8.5 -27.999 8.5h-55v-93h55c13.333 0 22.666 3.16699 27.999 9.5s8 14.166 8 23.499v29zM457 369.001c0 -20.667 -6.33301 -38.334 -19 -53.001s-34.667 -22 -66 -22h-61v-108h-55v284h116
c32 0 54.167 -6.66699 66.5 -20s18.5 -30.666 18.5 -51.999v-29zM608 326.001c0 38 -6.5 73.667 -19.5 107s-31.333 62.333 -55 87s-51.834 44.167 -84.501 58.5s-69 21.5 -109 21.5c-39.333 0 -75.5 -7.16699 -108.5 -21.5s-61.333 -33.833 -85 -58.5s-42 -53.667 -55 -87
s-19.5 -69 -19.5 -107s6.5 -73.5 19.5 -106.5s31.333 -62 55 -87s52 -44.667 85 -59s69.167 -21.5 108.5 -21.5c40 0 76.333 7.16699 109 21.5s60.834 34 84.501 59s42 54 55 87s19.5 68.5 19.5 106.5zM658 326.001c0 -44 -8 -85.333 -24 -124s-38.167 -72.5 -66.5 -101.5
s-62 -51.833 -101 -68.5s-81.167 -25 -126.5 -25s-87.5 8.33301 -126.5 25s-72.667 39.5 -101 68.5s-50.5 62.833 -66.5 101.5s-24 80 -24 124s8 85.5 24 124.5s38.167 73 66.5 102s62 51.833 101 68.5s81.167 25 126.5 25s87.5 -8.33301 126.5 -25s72.667 -39.5 101 -68.5
s50.5 -63 66.5 -102s24 -80.5 24 -124.5z" />
    <glyph glyph-name="endash" unicode="&#x2013;" horiz-adv-x="475" 
d="M63 269v76h350v-76h-350z" />
    <glyph glyph-name="emdash" unicode="&#x2014;" horiz-adv-x="713" 
d="M63 269v76h588v-76h-588z" />
    <glyph glyph-name="quoteleft" unicode="&#x2018;" horiz-adv-x="159" 
d="M38 559c0 32 7.66699 58.001 23 78.001s40.666 30 75.999 30v-29c-17.333 0 -30.666 -5.83301 -39.999 -17.5s-14 -27.834 -14 -48.501h37v-113h-82v100z" />
    <glyph glyph-name="quoteright" unicode="&#x2019;" horiz-adv-x="159" 
d="M121 566c0 -31.333 -7.83301 -57 -23.5 -77s-41.167 -30 -76.5 -30v29c17.333 0 30.833 5.66699 40.5 17s14.5 27.333 14.5 48h-37v113h82v-100z" />
    <glyph glyph-name="quotesinglbase" unicode="&#x201a;" horiz-adv-x="159" 
d="M121 13c0 -32 -7.83301 -58.001 -23.5 -78.001s-41.167 -30 -76.5 -30v29c17.333 0 30.833 5.83301 40.5 17.5s14.5 27.834 14.5 48.501h-37v113h82v-100z" />
    <glyph glyph-name="quotedblleft" unicode="&#x201c;" horiz-adv-x="281" 
d="M38 559c0 32 7.66699 58.001 23 78.001s40.666 30 75.999 30v-29c-17.333 0 -30.666 -5.83301 -39.999 -17.5s-14 -27.834 -14 -48.501h37v-113h-82v100zM159 559.001c0 32 7.66797 58.001 23.001 78.001s40.666 30 75.999 30v-29
c-17.333 0 -30.833 -5.83301 -40.5 -17.5s-14.5 -27.834 -14.5 -48.501h38v-113h-82v100z" />
    <glyph glyph-name="quotedblright" unicode="&#x201d;" horiz-adv-x="281" 
d="M121 566c0 -31.333 -7.83301 -57 -23.5 -77s-41.167 -30 -76.5 -30v29c17.333 0 30.833 5.66699 40.5 17s14.5 27.333 14.5 48h-37v113h82v-100zM241 566c0 -31.333 -7.66797 -57 -23.001 -77s-40.666 -30 -75.999 -30v29c17.333 0 30.833 5.66699 40.5 17
s14.5 27.333 14.5 48h-38v113h82v-100z" />
    <glyph glyph-name="quotedblbase" unicode="&#x201e;" horiz-adv-x="281" 
d="M121 13c0 -32 -7.83301 -58.001 -23.5 -78.001s-41.167 -30 -76.5 -30v29c17.333 0 30.833 5.83301 40.5 17.5s14.5 27.834 14.5 48.501h-37v113h82v-100zM241 12.999c0 -32 -7.66797 -58.001 -23.001 -78.001s-40.666 -30 -75.999 -30v29
c17.333 0 30.833 5.83301 40.5 17.5s14.5 27.834 14.5 48.501h-38v113h82v-100z" />
    <glyph glyph-name="dagger" unicode="&#x2020;" horiz-adv-x="381" 
d="M364 421c0 -4.66699 -1.49121 -7.83398 -4.49121 -9.50098s-6.16699 -2.5 -9.5 -2.5c-4.66699 0 -12.834 0.166992 -24.501 0.5s-24.334 1 -38.001 2s-27.167 2.33301 -40.5 4s-24.333 3.5 -33 5.5c2 -8 3.83301 -20.667 5.5 -38s3 -35.166 4 -53.499
s1.83301 -35.333 2.5 -51s1 -25.834 1 -30.501c0 -32.667 -0.166992 -64.667 -0.5 -96s-1 -60.5 -2 -87.5s-2.16699 -51 -3.5 -72s-2.66602 -37.833 -3.99902 -50.5c0 -3.33301 -0.833008 -6.5 -2.5 -9.5s-4.83398 -4.5 -9.50098 -4.5h-30
c-4.66699 0 -7.83398 1.5 -9.50098 4.5s-2.5 6.16699 -2.5 9.5c-1.33301 12.667 -2.5 29.5 -3.5 50.5s-2 45 -3 72s-1.66699 56.167 -2 87.5s-0.5 63.333 -0.5 96c0 4.66699 0.333008 14.834 1 30.501s1.5 32.667 2.5 51s2.16699 36.166 3.5 53.499s3 30 5 38
c-8 -2 -18.833 -3.83301 -32.5 -5.5s-27.334 -3 -41.001 -4s-26.334 -1.66699 -38.001 -2s-19.834 -0.5 -24.501 -0.5c-3.33301 0 -6.5 0.833008 -9.5 2.5s-4.5 4.83398 -4.5 9.50098v48c0 4 1.5 6.83301 4.5 8.5s6.16699 2.5 9.5 2.5c6 0 14.667 -0.166992 26 -0.5
s23.666 -0.833008 36.999 -1.5s26.666 -1.83398 39.999 -3.50098s24.333 -3.5 33 -5.5c-2 8 -3.83301 21.167 -5.5 39.5s-3 37.333 -4 57s-1.66699 37.834 -2 54.501s-0.5 27.334 -0.5 32.001c0 3.33301 1 6.5 3 9.5s5 4.5 9 4.5h48c4.66699 0 8 -1.5 10 -4.5
s3 -6.16699 3 -9.5c0 -4.66699 -0.166992 -15.334 -0.5 -32.001s-1 -34.834 -2 -54.501s-2.33301 -38.667 -4 -57s-3.5 -31.5 -5.5 -39.5c8.66699 2 19.5 3.83301 32.5 5.5s26.167 2.83398 39.5 3.50098s25.666 1.16699 36.999 1.5s20 0.5 26 0.5
c3.33301 0 6.5 -0.833008 9.5 -2.5s4.5 -4.5 4.5 -8.5v-48z" />
    <glyph glyph-name="daggerdbl" unicode="&#x2021;" horiz-adv-x="381" 
d="M364 125c0 -4.66699 -1.5 -7.83398 -4.5 -9.50098s-6.16699 -2.5 -9.5 -2.5c-6 0 -14.667 0.166992 -26 0.5s-23.666 1 -36.999 2s-26.5 2.33301 -39.5 4s-23.833 3.5 -32.5 5.5c2 -8.66699 3.83301 -22 5.5 -40s3 -36.833 4 -56.5s1.66699 -37.834 2 -54.501
s0.5 -27.334 0.5 -32.001c0 -3.33301 -1 -6.5 -3 -9.5s-5.33301 -4.5 -10 -4.5h-48c-4 0 -7 1.5 -9 4.5s-3 6.16699 -3 9.5c0 4.66699 0.166992 15.334 0.5 32.001s1 34.834 2 54.501s2.33301 38.5 4 56.5s3.5 31.333 5.5 40c-8.66699 -2 -19.667 -3.83301 -33 -5.5
s-26.666 -3 -39.999 -4s-25.666 -1.66699 -36.999 -2s-20 -0.5 -26 -0.5c-3.33301 0 -6.5 0.833008 -9.5 2.5s-4.5 4.83398 -4.5 9.50098v48c0 4.66699 1.5 7.83398 4.5 9.50098s6.16699 2.5 9.5 2.5c4.66699 0 12.834 -0.166992 24.501 -0.5s24.334 -1 38.001 -2
s27.334 -2.33301 41.001 -4s24.5 -3.5 32.5 -5.5c-2 8 -3.66699 18.167 -5 30.5s-2.5 24.5 -3.5 36.5s-1.83301 23.333 -2.5 34s-1 18.334 -1 23.001c0 5.33301 0.333008 13.166 1 23.499s1.5 21.5 2.5 33.5s2.16699 24.167 3.5 36.5s3 22.5 5 30.5
c-8 -2 -18.833 -3.83301 -32.5 -5.5s-27.334 -3 -41.001 -4s-26.334 -1.66699 -38.001 -2s-19.834 -0.5 -24.501 -0.5c-3.33301 0 -6.5 0.833008 -9.5 2.5s-4.5 4.83398 -4.5 9.50098v48c0 4 1.5 6.83301 4.5 8.5s6.16699 2.5 9.5 2.5c6 0 14.667 -0.166992 26 -0.5
s23.666 -0.833008 36.999 -1.5s26.666 -1.83398 39.999 -3.50098s24.333 -3.5 33 -5.5c-2 8 -3.83301 21.167 -5.5 39.5s-3 37.333 -4 57s-1.66699 37.834 -2 54.501s-0.5 27.334 -0.5 32.001c0 3.33301 1 6.5 3 9.5s5 4.5 9 4.5h48c4.66699 0 8 -1.5 10 -4.5
s3 -6.16699 3 -9.5c0 -4.66699 -0.166992 -15.334 -0.5 -32.001s-1 -34.834 -2 -54.501s-2.33301 -38.667 -4 -57s-3.5 -31.5 -5.5 -39.5c8.66699 2 19.5 3.83301 32.5 5.5s26.167 2.83398 39.5 3.50098s25.666 1.16699 36.999 1.5s20 0.5 26 0.5
c3.33301 0 6.5 -0.833008 9.5 -2.5s4.5 -4.5 4.5 -8.5v-48c0 -4.66699 -1.5 -7.83398 -4.5 -9.50098s-6.16699 -2.5 -9.5 -2.5c-4.66699 0 -12.834 0.166992 -24.501 0.5s-24.334 1 -38.001 2s-27.167 2.33301 -40.5 4s-24.333 3.5 -33 5.5c2 -8 3.83301 -18.167 5.5 -30.5
s3 -24.5 4 -36.5s1.83301 -23.167 2.5 -33.5s1 -18.166 1 -23.499c0 -4.66699 -0.333008 -12.334 -1 -23.001s-1.5 -22 -2.5 -34s-2.33301 -24.167 -4 -36.5s-3.5 -22.5 -5.5 -30.5c8.66699 2 19.667 3.83301 33 5.5s26.833 3 40.5 4s26.334 1.66699 38.001 2
s19.834 0.5 24.501 0.5c3.33301 0 6.5 -0.833008 9.5 -2.5s4.5 -4.83398 4.5 -9.50098v-48z" />
    <glyph glyph-name="bullet" unicode="&#x2022;" horiz-adv-x="295" 
d="M264 333c0 -37.333 -11 -66.333 -33 -87s-49.667 -31 -83 -31c-34 0 -62 10.333 -84 31s-33 49.667 -33 87s11 66.333 33 87s50 31 84 31c33.333 0 61 -10.333 83 -31s33 -49.667 33 -87z" />
    <glyph glyph-name="ellipsis" unicode="&#x2026;" horiz-adv-x="519" 
d="M54 0v113h82v-113h-82zM218 0v113h82v-113h-82zM383 0v113h82v-113h-82z" />
    <glyph glyph-name="perthousand" unicode="&#x2030;" horiz-adv-x="806" 
d="M479 242c0 9.33301 -3.33301 17.166 -10 23.499s-15.334 9.5 -26.001 9.5s-19.334 -3.16699 -26.001 -9.5s-10 -14.166 -10 -23.499v-170c0 -9.33301 3.33301 -17.166 10 -23.499s15.334 -9.5 26.001 -9.5s19.334 3.16699 26.001 9.5s10 14.166 10 23.499v170zM721 242
c0 9.33301 -3.33301 17.166 -10 23.499s-15.334 9.5 -26.001 9.5s-19.334 -3.16699 -26.001 -9.5s-10 -14.166 -10 -23.499v-170c0 -9.33301 3.33301 -17.166 10 -23.499s15.334 -9.5 26.001 -9.5s19.334 3.16699 26.001 9.5s10 14.166 10 23.499v170zM168 593
c0 9.33301 -3.33301 17.333 -10 24s-15.334 10 -26.001 10s-19.167 -3.33301 -25.5 -10s-9.5 -14.667 -9.5 -24v-169c0 -10 3.16699 -18 9.5 -24s14.833 -9 25.5 -9s19.334 3 26.001 9s10 14 10 24v169zM542 88c0 -32.667 -9.33301 -58.167 -28 -76.5
s-42.334 -27.5 -71.001 -27.5c-28 0 -51.5 9.16699 -70.5 27.5s-28.5 43.833 -28.5 76.5v138c0 32 9.5 57.167 28.5 75.5s42.5 27.5 70.5 27.5c28.667 0 52.334 -9.16699 71.001 -27.5s28 -43.5 28 -75.5v-138zM784 88c0 -32.667 -9.33301 -58.167 -28 -76.5
s-42.334 -27.5 -71.001 -27.5c-28 0 -51.5 9.16699 -70.5 27.5s-28.5 43.833 -28.5 76.5v138c0 32 9.5 57.167 28.5 75.5s42.5 27.5 70.5 27.5c28.667 0 52.334 -9.16699 71.001 -27.5s28 -43.5 28 -75.5v-138zM96 -22l-39 30l422 679l39 -30zM231 439
c0 -32 -9.33301 -57.167 -28 -75.5s-42.334 -27.5 -71.001 -27.5c-28 0 -51.333 9.16699 -70 27.5s-28 43.5 -28 75.5v139c0 32 9.33301 57 28 75s42 27 70 27c28.667 0 52.334 -9 71.001 -27s28 -43 28 -75v-139z" />
    <glyph glyph-name="guilsinglleft" unicode="&#x2039;" horiz-adv-x="240" 
d="M159 0c-8 36.667 -24.167 69.667 -48.5 99s-53.5 49.333 -87.5 60v69c34 10.667 63.167 30.667 87.5 60s40.5 62.333 48.5 99h49c0 -19.333 -2.5 -38.5 -7.5 -57.5s-12 -37 -21 -54s-20 -32.5 -33 -46.5s-27.5 -26 -43.5 -36c16 -10 30.5 -22 43.5 -36s24 -29.333 33 -46
s16 -34.5 21 -53.5s7.5 -38.167 7.5 -57.5h-49z" />
    <glyph glyph-name="guilsinglright" unicode="&#x203a;" horiz-adv-x="240" 
d="M218 159c-34 -10.667 -63.166 -30.667 -87.499 -60s-40.5 -62.333 -48.5 -99h-48c0 39.333 9.16699 76.5 27.5 111.5s44.166 62.167 77.499 81.5c-16.667 10 -31.5 22 -44.5 36s-24 29.5 -33 46.5s-15.833 35 -20.5 54s-7 38.167 -7 57.5h48
c8 -36.667 24.167 -69.667 48.5 -99s53.5 -49.333 87.5 -60v-69z" />
    <glyph glyph-name="fraction" unicode="&#x2044;" horiz-adv-x="101" 
d="M-174 -75l-47 33l498 782l47 -32z" />
    <glyph glyph-name="fraction" unicode="&#x2215;" horiz-adv-x="101" 
d="M-174 -75l-47 33l498 782l47 -32z" />
    <glyph glyph-name="Euro" unicode="&#x20ac;" horiz-adv-x="436" 
d="M343 373v-80h-210v-132c0 -27.333 7.66699 -49.333 23 -66s39 -25 71 -25c31.333 0 54.833 8.33301 70.5 25s23.5 40 23.5 70v47h84v-51c0 -24.667 -3.5 -47.667 -10.5 -69s-17.833 -40 -32.5 -56s-33.5 -28.5 -56.5 -37.5s-50.167 -13.5 -81.5 -13.5s-58.333 5 -81 15
s-41.167 23.5 -55.5 40.5s-25 36.5 -32 58.5s-10.5 45.333 -10.5 70v328c0 24.667 3.5 48 10.5 70s17.667 41.5 32 58.5s32.833 30.5 55.5 40.5s49.667 15 81 15s58.5 -4.5 81.5 -13.5s41.833 -21.5 56.5 -37.5s25.5 -34.667 32.5 -56s10.5 -44.333 10.5 -69v-51h-84v47
c0 30 -7.83301 53.333 -23.5 70s-39.167 25 -70.5 25c-32 0 -55.667 -8.5 -71 -25.5s-23 -38.833 -23 -65.5v-132h210z" />
    <glyph glyph-name="trademark" unicode="&#x2122;" horiz-adv-x="587" 
d="M151 622v-220h-52v220h-76v44h204v-44h-76zM494 402v214l-19 -74l-44 -140h-47l-43 140l-19 74v-214h-47v264h71l45 -147l17 -69l19 69l42 147h73v-264h-48z" />
    <glyph glyph-name="partialdiff" unicode="&#x2202;" 
d="M25 800h450v-1000h-450v1000z" />
    <glyph glyph-name="product" unicode="&#x220f;" horiz-adv-x="436" 
d="M236 356c47.333 0 71.001 25 71.001 75v88c0 19.333 -4.33301 35 -13 47s-24.334 18 -47.001 18h-98v-228h87zM210.001 278h-61v-278h-95v666h192c54 0 93.667 -12.833 119 -38.5s38 -62.5 38 -110.5v-85c0 -34 -8.16699 -64 -24.5 -90s-41.833 -44 -76.5 -54l5 -12
c3.33301 -8 7.5 -18.833 12.5 -32.5l17.5 -46.5l20 -53l54 -144h-97z" />
    <glyph glyph-name="summation" unicode="&#x2211;" 
d="M25 800h450v-1000h-450v1000z" />
    <glyph glyph-name="minus" unicode="&#x2212;" horiz-adv-x="380" 
d="M278 196l-89 89l-88 -89l-52 52l88 89l-88 89l53 52l89 -89l88 89l52 -52l-89 -88l89 -89z" />
    <glyph glyph-name="radical" unicode="&#x221a;" horiz-adv-x="647" 
d="M158 393v-392.999h-85v393h-54v70h54v49c0 48 10.167 85.667 30.5 113s51.5 41 93.5 41h34v-71h-23c-20 0 -34.167 -5.83301 -42.5 -17.5s-12.5 -27.834 -12.5 -48.501v-66h69v-70h-64zM391 393.001v-392.999h-84v393h-54v70h54v49c0 48 10.167 85.667 30.5 113
s51.5 41 93.5 41h33v-71h-22c-20 0 -34.167 -5.83301 -42.5 -17.5s-12.5 -27.834 -12.5 -48.501v-66h69v-70h-65zM515 0.00195312v666h85v-666h-85z" />
    <glyph glyph-name="infinity" unicode="&#x221e;" 
d="M25 800h450v-1000h-450v1000z" />
    <glyph glyph-name="integral" unicode="&#x222b;" 
d="M25 800h450v-1000h-450v1000z" />
    <glyph glyph-name="approxequal" unicode="&#x2248;" horiz-adv-x="647" 
d="M515 0v468h85v-468h-85zM158 393v-392.999h-85v393h-54v70h54v49c0 48 10.167 85.667 30.5 113s51.5 41 93.5 41h34v-71h-23c-20 0 -34.167 -5.83301 -42.5 -17.5s-12.5 -27.834 -12.5 -48.501v-66h69v-70h-64zM391 393.001v-392.999h-84v393h-54v70h54v49
c0 48 10.167 85.667 30.5 113s51.5 41 93.5 41h33v-71h-22c-20 0 -34.167 -5.83301 -42.5 -17.5s-12.5 -27.834 -12.5 -48.501v-66h69v-70h-65zM518 543.002v89h79v-89h-79z" />
    <glyph glyph-name="notequal" unicode="&#x2260;" horiz-adv-x="494" 
d="M24 0v468h446v-468h-446z" />
    <glyph glyph-name="lessequal" unicode="&#x2264;" horiz-adv-x="363" 
d="M48 236v13l254 117v-248z" />
    <glyph glyph-name="greaterequal" unicode="&#x2265;" horiz-adv-x="363" 
d="M63 118v248l254 -117v-13z" />
    <glyph glyph-name="lozenge" unicode="&#x25ca;" 
d="M25 800h450v-1000h-450v1000z" />
    <glyph glyph-name="NUL" horiz-adv-x="1000" 
 />
    <glyph glyph-name="nonmarkingreturn" horiz-adv-x="164" 
 />
    <glyph glyph-name="uni00A0" horiz-adv-x="164" 
 />
    <glyph glyph-name="apple" horiz-adv-x="694" 
d="M426 283c-5.33301 0 -9.33301 1.66699 -12 5s-4 7.33301 -4 12c0 4 1.33301 7.83301 4 11.5s6.66699 5.5 12 5.5s9.33301 -1.83301 12 -5.5s4 -7.5 4 -11.5c0 -4.66699 -1.33301 -8.66699 -4 -12s-6.66699 -5 -12 -5zM476 299v17h11c6.66699 0 10 -2.66699 10 -8
c0 -6 -3.33301 -9 -10 -9h-11zM342 423c-5.33301 -14 -12 -21 -20 -21c-10.667 0 -16 8.33301 -16 25c0 6.66699 1.5 13 4.5 19s6.83301 11.333 11.5 16zM327 479l-8.50098 17c-2.33301 4.66699 -3.5 9.66699 -3.5 15s1.33301 9.83301 4 13.5s6 5.5 10 5.5
s7.16699 -1.83301 9.5 -5.5s3.5 -8.16699 3.5 -13.5c0 -6 -1.16699 -11.5 -3.5 -16.5s-6.16602 -10.167 -11.499 -15.5zM254.999 276h8l11 34h1l11 -34h8l14 47h-8l-10 -35h-1l-11 35h-7l-11 -35h-1l-10 35h-8zM131.999 277h8v32l25 -32h7v46h-8v-32l-25 32h-7v-46z
M192.999 277h34v7h-26v13h23v7h-23v12h26v7h-34v-46zM356.999 323h-9l18 -29v-17h8v17l18 29h-9l-13 -22zM425.999 276c7.33301 0 13.166 2.33301 17.499 7s6.5 10.334 6.5 17.001c0 6 -2.16699 11.5 -6.5 16.5s-10.166 7.5 -17.499 7.5s-13.166 -2.5 -17.499 -7.5
s-6.5 -10.5 -6.5 -16.5c0 -6.66699 2.16699 -12.334 6.5 -17.001s10.166 -7 17.499 -7zM497.999 277l9 -0.000976562l-12 17c6.66699 2.66699 10 7.33398 10 14.001c0 10 -5.66699 15 -17 15h-20v-46h8v15h12zM522.999 276.999h8v12l8 8l15 -20h10l-20 26l18 20h-10l-20 -24
h-1v24h-8v-46zM357.999 467.999c-1.33301 -4.66699 -2.66992 -9.66602 -4.00293 -14.999s-2.66602 -10.333 -3.99902 -15h-1l-16 31c6.66699 6 12.167 12.5 16.5 19.5s6.5 14.5 6.5 22.5c0 7.33301 -2.16699 14.333 -6.5 21s-11.166 10 -20.499 10
c-8.66699 0 -15.5 -3.33301 -20.5 -10s-7.5 -13.667 -7.5 -21s1.33301 -13.833 4 -19.5s6 -12.167 10 -19.5c-15.333 -12 -23 -27.667 -23 -47c0 -11.333 2.66699 -20.333 8 -27s12.333 -10 21 -10c12.667 0 22.334 8 29.001 24h1l12 -24l12 6l-17 32
c2.66699 6 5 12.167 7 18.5s4 13.166 6 20.499zM459.995 394c6.66699 -2.66699 13.668 -4 21.001 -4c20.667 0 31 12 31 36v137h-16v-137c0 -14.667 -5.33301 -22 -16 -22c-3.33301 0 -6.83301 0.5 -10.5 1.5s-6.83398 2.16699 -9.50098 3.5v-15zM183.996 391h15v79h47v-79
h15v172h-15v-79h-47v79h-15v-172zM399.996 391h15v78h38v14h-38v66h43v14h-58v-172zM435.996 -200l-8 14h-163l-8 -14h-207v303c9.33301 0 17 3 23 9s9 13.667 9 23c0 8.66699 -3 16.167 -9 22.5s-13.667 9.5 -23 9.5v554h100l30 79h334l29 -79h101v-921h-208z" />
    <glyph glyph-name="Ohm" horiz-adv-x="468" 
d="M158 393v-392.999h-85v393h-54v70h54v49c0 48 10.167 85.667 30.5 113s51.5 41 93.5 41h34v-71h-23c-20 0 -34.167 -5.83301 -42.5 -17.5s-12.5 -27.834 -12.5 -48.501v-66h69v-70h-64zM391 393.001v-392.999h-84v393h-54v70h54v49c0 48 10.167 85.667 30.5 113
s51.5 41 93.5 41h33v-71h-22c-20 0 -34.167 -5.83301 -42.5 -17.5s-12.5 -27.834 -12.5 -48.501v-66h69v-70h-65z" />
    </font>
</defs>
</svg>
